<svg width="466" height="466" viewBox="0 0 466 466" fill="none" xmlns="http://www.w3.org/2000/svg">
<path d="M420.468 121.14C472.553 210.577 434.502 319.68 374.677 379.389C296.3 457.617 167.509 464.087 91.1579 408.845C59.4137 385.877 15.4271 337.923 21.3624 286.723C26.3871 243.329 62.5475 237.54 119.206 165.289C183.447 83.3675 197.927 46.6473 239.353 29.5568C308.196 1.16236 375.276 43.5182 420.468 121.14Z" fill="#EBF5FF"/>
<path d="M177.688 202.649C181.35 199.513 164.173 188.667 167.337 175.514C170.229 163.497 186.658 163.868 188.632 152.711C190.746 140.771 172.982 134.424 175.623 122.363C177.668 113.071 188.827 114.06 191.901 104.315C195.592 92.6049 180.599 87.6312 179.092 70.7591C177.684 55.002 189.954 50.2862 184.713 36.8986C184.03 35.154 179.691 24.6841 170.729 22.5678C156.152 19.1274 132.078 38.4388 130.378 59.3693C128.947 76.9918 144.451 82.574 141.375 100.952C138.778 116.532 126.956 116.616 127.98 129.392C129.195 144.492 146.16 149.396 146.186 166.113C146.2 174.868 141.54 176.28 143.642 182.934C148.061 196.974 173.653 206.106 177.688 202.649Z" fill="#77A9E3"/>
<path d="M172.292 199.626C172.159 199.626 172.028 199.592 171.911 199.526C161.272 193.468 155.162 186.868 153.748 179.906C152.66 174.563 154.733 170.942 156.925 167.109C159.056 163.392 161.26 159.531 160.642 153.635C159.98 147.393 157.049 143.992 154.212 140.7C151.376 137.409 148.693 134.296 148.405 128.786C147.984 120.992 152.904 116.659 157.662 112.469C162.336 108.352 166.752 104.463 166.887 97.4153C166.998 91.7239 164.243 87.8909 161.056 83.4771C157.676 78.7846 153.843 73.4649 153.36 64.9928C153 58.702 154.57 52.4043 158.024 46.2761C158.129 46.108 158.295 45.9869 158.487 45.9379C158.679 45.889 158.882 45.916 159.055 46.0133C159.227 46.1107 159.355 46.2708 159.413 46.4604C159.47 46.6501 159.452 46.8545 159.362 47.0311C156.054 52.8991 154.551 58.9111 154.893 64.9184C155.357 72.9422 158.886 77.8461 162.303 82.5897C165.511 87.043 168.543 91.25 168.424 97.4571C168.273 105.181 163.395 109.479 158.668 113.635C153.94 117.791 149.55 121.665 149.931 128.714C150.2 133.701 152.718 136.612 155.378 139.708C158.229 143.016 161.46 146.766 162.173 153.486C162.849 159.868 160.415 164.123 158.268 167.878C156.122 171.632 154.291 174.828 155.262 179.606C156.584 186.111 162.445 192.367 172.685 198.191C172.832 198.275 172.946 198.405 173.012 198.562C173.077 198.718 173.088 198.891 173.045 199.055C173.002 199.218 172.905 199.363 172.771 199.466C172.637 199.57 172.473 199.626 172.304 199.626H172.292Z" fill="#EBF5FF"/>
<path d="M180.669 256.464C182.586 253.839 167.367 245.927 158.282 222.455C152.781 208.245 152.284 195.443 151.915 183.444C151.002 153.761 158.057 149.528 153.394 134.791C147.801 117.092 135.042 120.62 125.715 101.602C114.214 78.139 129.665 64.7049 117.318 43.1495C110.581 31.3717 96.6753 19.1526 81.7753 20.5603C72.7597 21.4105 62.2224 27.3645 60.0991 35.8923C58.0525 44.1391 65.3631 48.6574 69.3355 60.1215C76.43 80.5898 60.8448 88.4788 63.8694 108.306C67.9719 135.214 99.1423 136.847 105.477 169.227C108.033 182.271 103.184 183.089 105.266 195.478C112.298 237.236 176.883 261.649 180.669 256.464Z" fill="#1176CA"/>
<path d="M169.414 252.929C169.256 252.928 169.101 252.879 168.973 252.787C147.055 237.327 134.863 220.627 132.733 203.148C131.734 194.936 133.017 187.682 134.259 180.664C136.097 170.275 137.832 160.453 131.837 148.866C127.611 140.694 122.182 136.621 116.932 132.684C110.98 128.219 105.361 124.003 102.957 114.411C101.286 107.744 102.292 102.93 103.456 97.3575C104.59 91.9309 105.874 85.7818 105.191 76.1877C104.47 66.5015 102.077 57.0134 98.1177 48.1441C98.0612 48.0508 98.0251 47.9464 98.0119 47.8381C97.9988 47.7297 98.0089 47.6198 98.0415 47.5156C98.0741 47.4115 98.1286 47.3155 98.2012 47.234C98.2738 47.1525 98.3629 47.0874 98.4627 47.043C98.5624 46.9986 98.6704 46.976 98.7796 46.9766C98.8887 46.9772 98.9965 47.001 99.0957 47.0465C99.1949 47.092 99.2833 47.1581 99.355 47.2404C99.4267 47.3227 99.4801 47.4193 99.5116 47.5239C103.542 56.555 105.979 66.216 106.713 76.0786C107.41 85.8864 106.102 92.147 104.947 97.6827C103.786 103.291 102.857 107.723 104.436 114.046C106.706 123.106 111.87 126.981 117.843 131.469C122.979 135.323 128.803 139.69 133.189 148.174C139.424 160.233 137.644 170.294 135.76 180.947C134.538 187.851 133.275 194.992 134.246 202.976C136.32 220.007 148.295 236.347 169.844 251.546C169.976 251.641 170.074 251.775 170.125 251.929C170.177 252.083 170.178 252.25 170.128 252.404C170.079 252.559 169.982 252.694 169.851 252.791C169.72 252.887 169.562 252.939 169.4 252.94L169.414 252.929Z" fill="white"/>
<path d="M388.051 445.558L107.582 444.666C106.325 444.666 105.082 444.409 103.928 443.909C102.775 443.41 101.736 442.68 100.876 441.763C100.017 440.846 99.3537 439.763 98.9287 438.581C98.5038 437.398 98.3258 436.141 98.4059 434.886L121.383 74.4194C121.532 72.0877 122.563 69.9001 124.266 68.301C125.97 66.702 128.218 65.8114 130.554 65.8102L411.741 64.9414C417.049 64.9414 422.011 70.2844 421.672 75.5902L398.695 436.055C398.4 440.896 392.901 445.558 388.051 445.558Z" fill="#1176CA"/>
<path d="M389.256 436.053C389.108 438.386 388.076 440.574 386.372 442.174C384.667 443.774 382.418 444.664 380.08 444.665H98.1388C96.8821 444.664 95.6389 444.407 94.4858 443.907C93.3326 443.408 92.2941 442.677 91.4342 441.761C90.5744 440.844 89.9115 439.761 89.4864 438.579C89.0614 437.396 88.8832 436.139 88.9628 434.885L111.94 74.4177C112.089 72.0853 113.12 69.897 114.825 68.2978C116.529 66.6986 118.779 65.8086 121.116 65.8086H403.058C404.314 65.8082 405.558 66.0657 406.711 66.5649C407.865 67.0642 408.904 67.7946 409.764 68.7112C410.624 69.6278 411.287 70.711 411.711 71.8939C412.136 73.0768 412.314 74.3343 412.234 75.5886L389.256 436.053Z" fill="white"/>
<path d="M380.08 445.432H105.519C105.315 445.432 105.119 445.351 104.975 445.207C104.831 445.063 104.75 444.867 104.75 444.663C104.75 444.459 104.831 444.264 104.975 444.12C105.119 443.976 105.315 443.895 105.519 443.895H380.08C382.222 443.89 384.283 443.072 385.844 441.605C387.406 440.139 388.351 438.134 388.49 435.996L411.467 75.5315C411.54 74.382 411.376 73.2298 410.987 72.1459C410.597 71.0621 409.99 70.0695 409.202 69.2295C408.414 68.3895 407.462 67.7198 406.405 67.2619C405.349 66.804 404.209 66.5674 403.057 66.5669H121.116C118.974 66.5712 116.913 67.3895 115.352 68.856C113.791 70.3225 112.845 72.3276 112.706 74.4652L106.536 171.282C106.534 171.386 106.511 171.488 106.469 171.583C106.426 171.678 106.365 171.763 106.289 171.833C106.212 171.904 106.122 171.958 106.024 171.993C105.926 172.027 105.822 172.042 105.719 172.035C105.615 172.029 105.514 172.001 105.421 171.954C105.328 171.907 105.246 171.842 105.179 171.763C105.112 171.683 105.062 171.591 105.032 171.492C105.002 171.392 104.992 171.288 105.003 171.185L111.173 74.3676C111.341 71.8432 112.461 69.4766 114.307 67.7459C116.152 66.0151 118.586 65.0491 121.116 65.043H403.057C404.419 65.0427 405.767 65.3217 407.017 65.8628C408.266 66.4038 409.392 67.1954 410.324 68.1886C411.255 69.1818 411.974 70.3556 412.434 71.6373C412.894 72.919 413.087 74.2815 413 75.6406L390.023 436.105C389.855 438.63 388.735 440.997 386.89 442.729C385.044 444.46 382.611 445.426 380.08 445.432Z" fill="black"/>
<path d="M378.422 425.114C378.285 427.254 377.338 429.262 375.774 430.729C374.209 432.196 372.145 433.013 370.001 433.013H108.332C107.179 433.013 106.038 432.776 104.979 432.318C103.921 431.86 102.968 431.19 102.179 430.349C101.39 429.508 100.781 428.514 100.391 427.429C100.001 426.343 99.8378 425.19 99.9111 424.039L121.627 84.1561C121.764 82.0159 122.711 80.0082 124.275 78.5411C125.839 77.074 127.903 76.2576 130.048 76.2578H391.712C392.865 76.258 394.006 76.4946 395.064 76.953C396.123 77.4114 397.076 78.0819 397.865 78.9231C398.654 79.7642 399.263 80.7582 399.653 81.8437C400.043 82.9291 400.206 84.083 400.133 85.234L378.422 425.114Z" fill="#EBF5FF"/>
<path d="M398.632 108.803L400.14 85.22C400.213 84.0691 400.049 82.9155 399.659 81.8303C399.269 80.7452 398.661 79.7515 397.872 78.9106C397.082 78.0697 396.129 77.3994 395.071 76.9411C394.013 76.4829 392.872 76.2463 391.719 76.2461H130.048C127.904 76.2458 125.839 77.0623 124.275 78.5294C122.711 79.9965 121.764 82.0042 121.627 84.1444L120.001 109.714L398.632 108.803Z" fill="#77A9E3"/>
<path d="M143.563 102.211C147.954 102.211 151.513 98.6523 151.513 94.2619C151.513 89.8716 147.954 86.3125 143.563 86.3125C139.173 86.3125 135.614 89.8716 135.614 94.2619C135.614 98.6523 139.173 102.211 143.563 102.211Z" fill="#1176CA"/>
<path d="M175.258 95.7884C175.929 91.4496 172.956 87.3884 168.617 86.7175C164.278 86.0466 160.217 89.02 159.546 93.3588C158.875 97.6976 161.849 101.759 166.188 102.43C170.526 103.101 174.588 100.127 175.258 95.7884Z" fill="#1176CA"/>
<path d="M199.908 95.6828C200.604 91.348 197.654 87.2698 193.319 86.5739C188.984 85.878 184.906 88.828 184.21 93.1628C183.514 97.4976 186.464 101.576 190.799 102.272C195.134 102.968 199.212 100.018 199.908 95.6828Z" fill="#1176CA"/>
<path d="M245.979 86.6157L371.067 86.0118C371.541 86.0097 372.011 86.104 372.447 86.2889C372.884 86.4738 373.278 86.7454 373.607 87.0873C373.935 87.4292 374.191 87.8343 374.358 88.2779C374.525 88.7216 374.6 89.1946 374.579 89.6682L374.247 97.311C374.208 98.2062 373.827 99.0524 373.183 99.6751C372.538 100.298 371.68 100.65 370.784 100.658L245.34 101.862C244.853 101.865 244.371 101.768 243.925 101.575C243.478 101.381 243.077 101.097 242.746 100.74C242.416 100.383 242.163 99.9613 242.005 99.5012C241.847 99.0411 241.786 98.5531 241.827 98.0683L242.524 89.8238C242.597 88.9548 242.991 88.144 243.63 87.5506C244.269 86.9571 245.107 86.6237 245.979 86.6157Z" fill="#1176CA"/>
<path d="M331.427 140.846L183.275 140.841L185.059 127.598H333.213L331.427 140.846Z" fill="#77A9E3"/>
<path d="M318.243 238.689L170.09 238.655L181.97 150.523L330.123 150.53L318.243 238.689Z" fill="#77A9E3"/>
<path d="M326.154 134.222C326.012 135.099 325.569 135.898 324.899 136.48C324.23 137.063 323.377 137.393 322.49 137.412C322.084 137.426 321.68 137.35 321.307 137.19C320.933 137.029 320.601 136.787 320.332 136.482C320.064 136.176 319.867 135.815 319.755 135.425C319.643 135.034 319.62 134.623 319.686 134.222C319.827 133.346 320.271 132.547 320.94 131.964C321.609 131.381 322.462 131.052 323.35 131.033C323.756 131.019 324.16 131.095 324.533 131.255C324.906 131.416 325.239 131.658 325.507 131.963C325.776 132.269 325.973 132.63 326.085 133.02C326.196 133.411 326.22 133.822 326.154 134.222Z" fill="#77A9E3"/>
<path d="M310.018 299.719L161.864 299.665L169.272 244.719L317.426 244.756L310.018 299.719Z" fill="#77A9E3"/>
<path d="M301.53 362.712L153.376 362.64L160.782 307.691L308.938 307.747L301.53 362.712Z" fill="#77A9E3"/>
<path d="M295.548 407.101L147.394 407.015L152.293 370.664L300.447 370.741L295.548 407.101Z" fill="#77A9E3"/>
<path d="M285.747 192.07L279.101 216.541L276.264 216.72L282.488 193.613L285.747 192.07Z" fill="white"/>
<path d="M247.124 208.775C246.99 208.831 246.851 208.873 246.708 208.901C246.563 208.89 246.419 208.862 246.281 208.817L218.92 197.274L218.862 197.534L216.016 210.427C215.895 210.977 215.902 211.477 216.367 211.7L241.779 224.068C242.132 224.24 242.536 224.281 242.917 224.184C243.282 224.224 243.65 224.155 243.976 223.986L274.255 208.673C274.763 208.417 274.986 207.941 275.123 207.43L278.318 195.443L278.383 195.211L247.124 208.775Z" fill="white"/>
<path d="M279.402 210.586L272.777 220.405C272.74 220.454 272.715 220.512 272.705 220.573C272.696 220.633 272.701 220.696 272.721 220.754L275.021 225.741C275.043 225.786 275.079 225.823 275.123 225.846C275.168 225.869 275.218 225.877 275.267 225.869C275.393 225.855 275.509 225.795 275.593 225.7L280.687 220.213C280.733 220.167 280.768 220.112 280.791 220.051C280.813 219.991 280.822 219.926 280.817 219.862L279.402 210.586Z" fill="white"/>
<path d="M294.67 182.469L258.321 163.91C258.127 163.82 257.915 163.773 257.701 163.773C257.487 163.773 257.275 163.82 257.081 163.91L206.055 184.12C205.881 184.19 205.514 184.353 205.479 184.515L204.808 187.733C204.773 187.9 205.087 188.042 205.233 188.104L246.792 205.718C247.213 205.864 247.674 205.842 248.079 205.657L293.666 186.046C293.734 186.012 293.793 185.963 293.839 185.902C293.886 185.842 293.918 185.772 293.933 185.698L294.73 182.819C294.765 182.661 294.793 182.527 294.67 182.469Z" fill="white"/>
<path d="M202.459 244.901C228.89 271.332 271.743 271.332 298.168 244.901C324.592 218.469 324.599 175.617 298.168 149.192C271.736 122.768 228.884 122.761 202.459 149.192C176.035 175.624 176.025 218.469 202.459 244.901ZM206.733 153.459C230.805 129.391 269.829 129.391 293.898 153.459C317.967 177.528 317.969 216.555 293.898 240.627C269.827 264.698 230.805 264.695 206.733 240.627C182.662 216.558 182.665 177.531 206.733 153.459Z" fill="white"/>
<path d="M250.316 265.461C236.779 265.466 223.546 261.455 212.289 253.937C201.032 246.419 192.258 235.731 187.077 223.225C181.895 210.72 180.54 196.958 183.181 183.682C185.822 170.405 192.342 158.211 201.916 148.641C228.605 121.958 272.027 121.958 298.719 148.641C308.296 158.21 314.818 170.405 317.462 183.682C320.105 196.96 318.75 210.724 313.568 223.231C308.385 235.738 299.609 246.427 288.35 253.944C277.091 261.461 263.854 265.47 250.316 265.461ZM203.001 244.357C229.09 270.446 271.542 270.446 297.631 244.357C303.846 238.144 308.776 230.768 312.139 222.649C315.502 214.531 317.234 205.83 317.234 197.042C317.234 188.255 315.502 179.553 312.139 171.435C308.776 163.317 303.846 155.941 297.631 149.728C271.542 123.638 229.102 123.638 203.001 149.728C190.453 162.277 183.403 179.296 183.403 197.042C183.403 214.788 190.453 231.808 203.001 244.357ZM250.316 259.417C235.891 259.403 221.917 254.389 210.774 245.228C199.631 236.067 192.009 223.327 189.206 209.177C186.403 195.027 188.593 180.343 195.401 167.626C202.21 154.909 213.218 144.946 226.548 139.434C239.878 133.922 254.708 133.203 268.509 137.398C282.311 141.593 294.231 150.443 302.239 162.441C310.248 174.438 313.849 188.842 312.429 203.196C311.009 217.551 304.657 230.97 294.454 241.167C288.662 246.967 281.781 251.564 274.206 254.696C266.631 257.828 258.513 259.432 250.316 259.417ZM250.316 136.175C238.277 136.174 226.508 139.742 216.497 146.43C206.486 153.118 198.684 162.625 194.077 173.748C189.47 184.87 188.265 197.11 190.615 208.917C192.964 220.725 198.763 231.57 207.277 240.082C231.009 263.812 269.625 263.814 293.357 240.082C301.871 231.57 307.67 220.725 310.02 208.917C312.369 197.109 311.164 184.869 306.557 173.747C301.949 162.624 294.147 153.117 284.136 146.429C274.125 139.742 262.355 136.173 250.316 136.175Z" fill="black"/>
<path d="M370.846 316.424L369.81 317.46C368.612 318.658 366.986 319.331 365.291 319.331C363.596 319.331 361.97 318.658 360.771 317.46L295.727 252.415L305.804 242.34L370.849 307.385C372.047 308.584 372.719 310.21 372.719 311.905C372.719 313.6 372.045 315.225 370.846 316.424Z" fill="white"/>
<path d="M365.29 320.097C364.35 320.101 363.418 319.918 362.549 319.559C361.68 319.2 360.891 318.672 360.228 318.006L295.183 252.961C295.039 252.817 294.958 252.622 294.958 252.418C294.958 252.214 295.039 252.018 295.183 251.874L305.26 241.799C305.405 241.655 305.6 241.574 305.804 241.574C306.008 241.574 306.203 241.655 306.348 241.799L371.392 306.833C372.736 308.176 373.49 309.997 373.49 311.897C373.49 313.796 372.736 315.618 371.392 316.961L370.356 317.995C369.693 318.663 368.904 319.194 368.034 319.554C367.164 319.915 366.232 320.1 365.29 320.097ZM296.823 252.423L361.313 316.915C362.368 317.968 363.799 318.559 365.29 318.559C366.781 318.559 368.211 317.968 369.267 316.915L370.303 315.878C371.356 314.823 371.948 313.393 371.948 311.901C371.948 310.41 371.356 308.98 370.303 307.924L305.813 243.435L296.823 252.423Z" fill="black"/>
<path d="M334.038 286.611C333.937 286.61 333.836 286.589 333.743 286.549C333.65 286.509 333.565 286.452 333.494 286.379L328.056 280.938C327.912 280.795 327.832 280.599 327.832 280.396C327.832 280.193 327.912 279.997 328.056 279.854C328.2 279.71 328.395 279.629 328.599 279.629C328.802 279.629 328.997 279.71 329.141 279.854L334.582 285.292C334.689 285.399 334.763 285.536 334.793 285.685C334.823 285.834 334.807 285.989 334.749 286.129C334.691 286.27 334.592 286.39 334.466 286.474C334.339 286.558 334.19 286.603 334.038 286.602V286.611Z" fill="black"/>
<path d="M361.777 303.195L367.889 309.306C368.578 309.996 368.965 310.93 368.965 311.904C368.965 312.879 368.577 313.813 367.888 314.502C367.199 315.191 366.265 315.578 365.29 315.577C364.316 315.577 363.382 315.19 362.693 314.501L341.226 293.031L361.777 303.195Z" fill="white"/>
<path d="M365.292 316.343C364.708 316.344 364.13 316.23 363.591 316.007C363.052 315.784 362.562 315.457 362.149 315.044L340.682 293.574C340.604 293.505 340.542 293.42 340.498 293.325C340.455 293.23 340.431 293.128 340.428 293.024C340.425 292.919 340.444 292.816 340.482 292.719C340.521 292.622 340.579 292.534 340.652 292.46C340.726 292.386 340.814 292.328 340.911 292.29C341.007 292.251 341.111 292.232 341.215 292.235C341.32 292.237 341.422 292.261 341.517 292.304C341.612 292.348 341.697 292.41 341.767 292.487L363.236 313.957C363.786 314.477 364.517 314.762 365.273 314.752C366.03 314.742 366.753 314.437 367.288 313.902C367.824 313.367 368.129 312.644 368.14 311.887C368.15 311.131 367.866 310.4 367.346 309.85L361.231 303.738C361.158 303.667 361.099 303.582 361.058 303.488C361.017 303.394 360.996 303.293 360.995 303.191C360.994 303.088 361.013 302.987 361.052 302.892C361.09 302.797 361.147 302.711 361.22 302.639C361.292 302.567 361.378 302.509 361.473 302.471C361.568 302.432 361.669 302.413 361.772 302.414C361.874 302.415 361.975 302.436 362.069 302.477C362.163 302.518 362.248 302.577 362.319 302.651L368.428 308.762C369.05 309.383 369.473 310.174 369.644 311.036C369.816 311.897 369.728 312.79 369.392 313.601C369.056 314.413 368.487 315.107 367.757 315.594C367.027 316.082 366.168 316.343 365.29 316.343H365.292Z" fill="black"/>
<path d="M310.544 247.531L300.918 257.157C299.404 258.671 299.404 261.126 300.918 262.64L304.025 265.746C305.539 267.26 307.994 267.26 309.508 265.746L319.133 256.12C320.648 254.606 320.648 252.151 319.133 250.637L316.027 247.531C314.513 246.017 312.058 246.017 310.544 247.531Z" fill="white"/>
<path d="M306.766 267.645C306.156 267.646 305.551 267.527 304.988 267.294C304.424 267.06 303.912 266.718 303.481 266.286L300.368 263.18C299.498 262.309 299.009 261.128 299.009 259.897C299.009 258.665 299.498 257.484 300.368 256.613L309.995 246.984C310.866 246.114 312.047 245.625 313.278 245.625C314.51 245.625 315.691 246.114 316.562 246.984L319.67 250.092C320.54 250.964 321.029 252.145 321.029 253.376C321.029 254.607 320.54 255.788 319.67 256.66L310.043 266.286C309.613 266.717 309.102 267.059 308.54 267.292C307.977 267.525 307.374 267.645 306.766 267.645ZM313.286 247.163C312.878 247.162 312.474 247.242 312.097 247.397C311.72 247.553 311.377 247.782 311.089 248.071L301.462 257.698C300.88 258.281 300.553 259.072 300.553 259.896C300.553 260.72 300.88 261.51 301.462 262.093L304.568 265.201C304.856 265.49 305.199 265.719 305.576 265.876C305.953 266.032 306.357 266.112 306.766 266.112C307.174 266.112 307.578 266.032 307.955 265.876C308.332 265.719 308.675 265.49 308.963 265.201L318.59 255.575C319.172 254.992 319.499 254.201 319.499 253.377C319.499 252.553 319.172 251.763 318.59 251.18L315.484 248.071C315.195 247.784 314.852 247.556 314.475 247.402C314.098 247.247 313.694 247.168 313.286 247.17V247.163Z" fill="black"/>
<path d="M321.237 258.219L311.611 267.844C310.097 269.358 310.097 271.813 311.611 273.327L314.717 276.434C316.231 277.948 318.686 277.948 320.2 276.434L329.826 266.808C331.34 265.294 331.34 262.839 329.826 261.325L326.72 258.219C325.205 256.704 322.751 256.704 321.237 258.219Z" fill="white"/>
<path d="M317.458 278.341C316.848 278.342 316.244 278.222 315.68 277.989C315.117 277.756 314.605 277.413 314.174 276.982L311.068 273.887C310.197 273.016 309.708 271.835 309.708 270.603C309.708 269.371 310.197 268.189 311.068 267.318L320.694 257.691C321.566 256.821 322.747 256.332 323.978 256.332C325.209 256.332 326.391 256.821 327.262 257.691L330.37 260.799C331.24 261.671 331.729 262.852 331.729 264.083C331.729 265.314 331.24 266.495 330.37 267.367L320.741 276.993C320.31 277.423 319.798 277.763 319.234 277.995C318.671 278.226 318.067 278.343 317.458 278.341ZM323.977 257.858C323.569 257.858 323.165 257.938 322.788 258.093C322.41 258.249 322.068 258.478 321.779 258.767L312.153 268.393C311.572 268.977 311.245 269.767 311.245 270.591C311.245 271.415 311.572 272.205 312.153 272.789L315.261 275.894C315.549 276.183 315.892 276.412 316.269 276.569C316.646 276.725 317.05 276.806 317.458 276.806C317.867 276.806 318.271 276.725 318.648 276.569C319.025 276.412 319.368 276.183 319.656 275.894L329.283 266.268C329.572 265.979 329.801 265.637 329.957 265.26C330.113 264.883 330.194 264.478 330.194 264.07C330.194 263.662 330.113 263.258 329.957 262.881C329.801 262.504 329.572 262.161 329.283 261.873L326.174 258.767C325.886 258.478 325.544 258.249 325.167 258.093C324.789 257.937 324.385 257.857 323.977 257.858Z" fill="black"/>
<path d="M226.553 148.693C226.379 148.693 226.21 148.634 226.074 148.525C225.938 148.417 225.843 148.265 225.804 148.096C225.765 147.926 225.785 147.748 225.86 147.591C225.936 147.434 226.062 147.307 226.219 147.232C231.145 144.858 236.397 143.229 241.802 142.4C242 142.377 242.199 142.431 242.358 142.552C242.516 142.673 242.622 142.85 242.652 143.047C242.682 143.244 242.634 143.445 242.519 143.608C242.404 143.771 242.23 143.882 242.034 143.919C236.78 144.723 231.674 146.305 226.886 148.614C226.782 148.665 226.669 148.692 226.553 148.693Z" fill="black"/>
<path d="M250.251 252.41C242.983 252.43 235.783 251.008 229.068 248.226C222.353 245.445 216.256 241.36 211.131 236.206C189.559 214.635 189.559 179.525 211.131 157.964C211.277 157.832 211.468 157.761 211.666 157.766C211.863 157.771 212.05 157.851 212.19 157.99C212.33 158.13 212.41 158.317 212.416 158.514C212.421 158.711 212.35 158.903 212.218 159.049C191.246 180.022 191.246 214.147 212.218 235.119C219.12 242.017 227.769 246.907 237.237 249.267C246.706 251.627 256.637 251.366 265.969 248.514C275.301 245.662 283.682 240.326 290.213 233.076C296.745 225.826 301.182 216.937 303.049 207.359C303.068 207.26 303.106 207.166 303.162 207.081C303.218 206.997 303.289 206.925 303.373 206.868C303.457 206.812 303.551 206.772 303.65 206.752C303.749 206.732 303.851 206.731 303.95 206.75C304.049 206.77 304.143 206.808 304.228 206.864C304.312 206.92 304.384 206.991 304.441 207.075C304.497 207.159 304.537 207.253 304.557 207.352C304.577 207.451 304.578 207.553 304.559 207.652C302.103 220.255 295.342 231.612 285.433 239.778C275.524 247.943 263.084 252.409 250.244 252.41H250.251Z" fill="black"/>
<path d="M81.5568 184.077C86.3051 178.938 93.3648 177.856 98.6706 179.305C105.384 181.138 108.771 186.948 111.159 191.046C115.38 198.289 113.343 200.912 116.66 205.119C122.537 212.571 136.792 207.637 143.733 213.359C160.41 227.111 151.32 249.83 136.531 260.567C126.675 267.722 113.264 263.587 109.614 262.458C98.5428 259.043 80.1955 252.349 78.4184 236.361C77.2244 225.613 88.196 216.994 82.3025 208.02C80.8018 205.739 79.5567 205.119 78.4416 202.266C76.6366 197.646 76.2278 189.843 81.5568 184.077Z" fill="black"/>
<path d="M98.8868 185.343C96.364 183.297 97.9576 177.262 99.5837 174.005C100.188 172.785 102.896 167.324 106.458 167.537C110.114 167.753 113.617 173.893 112.312 178.758C110.671 184.839 101.844 187.743 98.8868 185.343Z" fill="black"/>
<path d="M115.919 222.407C108.307 219.923 96.7103 218.142 82.8488 222.555C80.3769 223.354 78.1867 224.846 76.5392 226.854C74.8917 228.862 73.8564 231.302 73.5567 233.882L62.2574 298.899C61.6976 303.627 68.0162 308.222 72.4788 309.908C77.1248 311.669 84.1567 313.337 94.1085 313.337C104.776 313.337 117.662 313.277 121.985 311.381L122.375 311.204C127.95 308.61 131.221 302.732 130.673 296.616L128.376 287.059C125.839 276.52 124.663 265.7 124.875 254.862L125.246 235.938C125.388 232.973 124.552 230.043 122.867 227.598C121.182 225.154 118.741 223.33 115.919 222.407Z" fill="#1176CA"/>
<path d="M62.6035 250.34C62.6035 250.34 71.6169 225.372 81.7244 222.973L76.5858 258.35L62.6035 250.34Z" fill="#1176CA"/>
<path d="M138.304 264.911C140.192 263.417 141.592 261.394 142.324 259.101C143.057 256.808 143.089 254.348 142.416 252.036C141.177 247.783 139.628 242.661 138.255 238.958C133.609 226.283 123.961 223.449 120.205 222.55C119.615 222.411 112.932 221.523 112.932 221.523L116.955 260.304L134.134 267.341L138.304 264.911Z" fill="#1176CA"/>
<path d="M126.12 295.864C125.98 295.864 125.843 295.826 125.723 295.754C125.603 295.682 125.505 295.578 125.439 295.455C117.803 280.957 94.5056 280.376 84.419 282.37C78.0353 283.629 71.41 287.898 71.3334 287.945C71.2488 288.004 71.1531 288.046 71.052 288.068C70.9509 288.089 70.8464 288.09 70.7449 288.071C70.6434 288.051 70.5468 288.011 70.4611 287.953C70.3754 287.896 70.3022 287.821 70.2459 287.734C70.1896 287.648 70.1514 287.55 70.1336 287.449C70.1158 287.347 70.1187 287.242 70.1421 287.142C70.1656 287.041 70.2091 286.946 70.2701 286.862C70.3311 286.779 70.4083 286.708 70.4971 286.656C70.7758 286.474 77.443 282.181 84.1217 280.864C92.4335 279.224 118.115 278.251 126.8 294.74C126.862 294.857 126.892 294.988 126.888 295.12C126.884 295.253 126.846 295.382 126.778 295.495C126.709 295.608 126.613 295.702 126.498 295.767C126.382 295.832 126.252 295.866 126.12 295.866V295.864Z" fill="black"/>
<path d="M98.3062 270.735L54.0385 270.668C53.4932 270.667 52.9639 270.484 52.5352 270.147C52.1064 269.81 51.8031 269.339 51.6737 268.809L44.161 237.579C44.0728 237.219 44.0677 236.844 44.1459 236.482C44.2241 236.121 44.3837 235.781 44.6124 235.49C44.8412 235.199 45.1332 234.964 45.4663 234.803C45.7995 234.641 46.1649 234.558 46.5351 234.559L90.8028 234.626C91.3481 234.627 91.8774 234.81 92.3061 235.147C92.7349 235.484 93.0382 235.955 93.1676 236.484L100.678 267.718C100.766 268.077 100.771 268.451 100.692 268.812C100.614 269.174 100.455 269.513 100.226 269.803C99.9976 270.094 99.7061 270.329 99.3735 270.49C99.0408 270.652 98.6759 270.735 98.3062 270.735Z" fill="#EBF5FF"/>
<path d="M98.3081 271.504L54.0427 271.437C53.3255 271.437 52.6291 271.196 52.0648 270.754C51.5005 270.311 51.1009 269.692 50.9299 268.995L43.4195 237.758C43.3037 237.285 43.2967 236.793 43.3991 236.317C43.5016 235.842 43.7107 235.396 44.0108 235.014C44.3109 234.631 44.694 234.321 45.1313 234.109C45.5685 233.896 46.0484 233.785 46.5347 233.785L90.8001 233.853C91.517 233.853 92.2131 234.093 92.777 234.536C93.3409 234.979 93.7401 235.598 93.9106 236.294L101.423 267.532C101.539 268.004 101.545 268.497 101.443 268.972C101.34 269.447 101.13 269.893 100.83 270.276C100.53 270.658 100.147 270.968 99.7093 271.181C99.272 271.393 98.7921 271.504 98.3058 271.504H98.3081ZM98.3081 269.966C98.5621 269.967 98.8128 269.91 99.0414 269.799C99.2699 269.688 99.4702 269.527 99.627 269.327C99.7838 269.127 99.8929 268.895 99.9462 268.646C99.9994 268.398 99.9953 268.141 99.9342 267.894L92.4239 236.656C92.3339 236.293 92.1247 235.971 91.8299 235.741C91.5351 235.511 91.1716 235.387 90.7977 235.388L46.5347 235.323C46.2808 235.323 46.0302 235.381 45.8019 235.492C45.5736 235.603 45.3736 235.765 45.2169 235.965C45.0603 236.164 44.9511 236.397 44.8977 236.646C44.8443 236.894 44.848 237.151 44.9086 237.397L52.4213 268.633C52.5109 268.996 52.7199 269.319 53.0148 269.549C53.3097 269.779 53.6734 269.903 54.0474 269.901L98.3081 269.966Z" fill="black"/>
<path d="M72.5245 255.891C74.2796 255.48 75.3445 253.618 74.9031 251.733C74.4617 249.848 72.681 248.653 70.9259 249.064C69.1708 249.475 68.1059 251.337 68.5473 253.222C68.9888 255.107 70.7694 256.302 72.5245 255.891Z" fill="#77A9E3"/>
<path d="M46.7561 249.465L47.3183 251.712C47.3725 251.935 47.4757 252.143 47.6203 252.321C47.7649 252.499 47.9473 252.643 48.1543 252.742C48.3614 252.841 48.5878 252.893 48.8173 252.893C49.0467 252.894 49.2734 252.843 49.481 252.746L56.9705 249.194C57.2048 249.082 57.4602 249.022 57.7197 249.016C57.9791 249.01 58.2369 249.06 58.4759 249.161C58.7149 249.262 58.9297 249.413 59.1063 249.603C59.2829 249.793 59.4171 250.019 59.5002 250.265C60.1972 252.399 59.6094 256.188 50.0757 260.054C44.2519 262.414 44.0358 256.019 44.9929 252.118C45.2615 251.059 45.8835 250.123 46.7561 249.465Z" fill="#FFBF9D"/>
<path d="M47.8195 261.321C46.956 261.343 46.1149 261.045 45.4593 260.482C43.4498 258.747 43.5521 254.786 44.249 251.924C44.5652 250.685 45.2976 249.593 46.3234 248.83C46.4245 248.761 46.5405 248.718 46.6617 248.704C46.783 248.689 46.9059 248.704 47.0203 248.746C47.1343 248.792 47.2357 248.864 47.3165 248.956C47.3972 249.049 47.4549 249.159 47.4849 249.278L48.0471 251.525C48.0751 251.637 48.1276 251.741 48.2009 251.83C48.2743 251.92 48.3665 251.991 48.4711 252.041C48.5756 252.09 48.6898 252.115 48.8053 252.115C48.9208 252.114 49.0348 252.088 49.1389 252.038L56.6261 248.488C56.9588 248.329 57.3214 248.243 57.69 248.235C58.0586 248.227 58.4247 248.297 58.7641 248.441C59.1035 248.585 59.4083 248.8 59.6585 249.071C59.9087 249.342 60.0984 249.663 60.2152 250.012C61.1095 252.726 60.1222 256.791 50.3492 260.752C49.5497 261.1 48.6912 261.293 47.8195 261.321ZM46.3443 250.983C46.0626 251.376 45.8577 251.818 45.7403 252.286C45.1015 254.918 45.1433 258.178 46.4628 259.318C47.1737 259.932 48.291 259.934 49.7894 259.318C56.5541 256.577 59.7459 253.439 58.7702 250.491C58.7246 250.349 58.6489 250.219 58.5482 250.11C58.4476 250 58.3244 249.914 58.1872 249.857C58.0469 249.796 57.8954 249.767 57.7429 249.77C57.5903 249.772 57.44 249.808 57.3021 249.873L49.8126 253.425C49.5029 253.571 49.1647 253.646 48.8223 253.646C48.4799 253.646 48.1418 253.57 47.8322 253.424C47.5225 253.278 47.249 253.065 47.0311 252.801C46.8133 252.537 46.6565 252.228 46.572 251.896L46.3443 250.983Z" fill="black"/>
<path d="M111.382 239.892C111.382 239.892 131.263 251.094 135.363 254.606C139.463 258.119 143.91 260.79 138.111 268.449C133.184 274.954 124.505 269.146 109.208 247.198C108.49 246.169 107.317 245.532 106.095 245.258C104.562 244.914 102.332 243.702 101.307 239.683C101.307 239.683 94.055 240.712 93.4092 237.176L104.3 235.443C105.018 235.316 105.757 235.367 106.452 235.591C107.147 235.815 107.777 236.205 108.286 236.728L111.382 239.892Z" fill="#FFBF9D"/>
<path d="M133.574 271.733H133.451C127.86 271.624 119.955 263.969 108.569 247.641C108.019 246.849 107.078 246.27 105.921 246.015C104.488 245.694 101.972 244.551 100.736 240.516C98.7871 240.685 93.3024 240.846 92.652 237.312C92.6169 237.109 92.6637 236.901 92.7821 236.732C92.8413 236.648 92.9166 236.578 93.0036 236.524C93.0905 236.47 93.1874 236.434 93.2885 236.418L104.179 234.683C105.018 234.537 105.879 234.598 106.689 234.861C107.498 235.124 108.232 235.58 108.825 236.19L111.845 239.282C113.522 240.23 131.846 250.596 135.851 254.029C136.165 254.298 136.483 254.563 136.797 254.826C140.585 257.992 144.504 261.268 138.713 268.92C137.31 270.785 135.579 271.733 133.574 271.733ZM101.308 238.908C101.478 238.909 101.644 238.966 101.779 239.07C101.914 239.175 102.011 239.321 102.053 239.487C102.964 243.062 104.841 244.191 106.263 244.509C107.796 244.853 109.064 245.65 109.838 246.758C120.756 262.431 128.501 270.097 133.489 270.195C135.057 270.218 136.353 269.498 137.498 267.988C142.407 261.502 139.645 259.195 135.821 256.001C135.503 255.734 135.182 255.465 134.864 255.193C130.866 251.766 111.204 240.674 111.006 240.558C110.942 240.523 110.883 240.478 110.832 240.425L107.742 237.252C107.321 236.819 106.8 236.495 106.224 236.31C105.649 236.125 105.036 236.084 104.441 236.19L94.5174 237.77C95.7509 239.278 99.7163 239.122 101.201 238.911C101.236 238.908 101.272 238.907 101.308 238.908Z" fill="black"/>
<path d="M90.9862 210.432C90.4626 210.691 89.871 210.778 89.295 210.682C88.7189 210.586 88.1875 210.312 87.7758 209.898C86.8762 208.987 86.0871 207.973 85.4249 206.878L84.21 206.901C84.0234 206.906 83.8425 206.836 83.7065 206.709C83.5705 206.581 83.4901 206.405 83.4829 206.218L83.2715 201.474C82.3423 199.948 81.9613 198.659 81.8776 197.621C81.7313 195.857 83.304 192.689 84.8976 191.913C87.051 190.861 90.9375 190.287 92.9701 193.346C93.8436 194.659 95.2606 195.6 96.1178 195.437C96.9239 195.295 97.2561 194.603 97.6533 193.887C98.3944 192.554 100.239 191.302 102.011 193.409C103.784 195.516 102.562 197.504 101.447 199.142C100.999 199.802 101.484 201.637 101.679 202.415L104.304 213.605C104.637 215.022 105.311 216.336 106.269 217.432C107.226 218.528 108.437 219.373 109.796 219.894L112.607 220.972C112.607 220.972 109.503 230.392 97.0656 230.124C87.5737 229.922 88.3008 222.136 88.3008 222.136L89.5483 221.585C91.1304 220.887 92.4208 219.66 93.1984 218.116C93.976 216.571 94.1926 214.804 93.8111 213.118L92.9748 209.424L90.9862 210.432Z" fill="#FFBF9D"/>
<path d="M97.5674 230.921C97.3932 230.921 97.219 230.921 97.0401 230.921C93.6996 230.849 91.1652 229.871 89.5112 228.015C87.2392 225.459 87.5134 222.228 87.5273 222.091C87.5404 221.953 87.5906 221.822 87.6724 221.711C87.7542 221.6 87.8646 221.513 87.9919 221.459L89.2371 220.908C90.6547 220.281 91.8106 219.181 92.5079 217.796C93.2052 216.411 93.4005 214.827 93.0608 213.315L92.4405 210.578L91.3487 211.126C90.6811 211.459 89.9253 211.573 89.1894 211.451C88.4534 211.328 87.7749 210.977 87.2509 210.446C86.4134 209.601 85.6667 208.672 85.0231 207.672L84.2449 207.688C83.8564 207.701 83.4789 207.558 83.1953 207.293C82.9118 207.027 82.7453 206.659 82.7326 206.271L82.5328 201.72C81.7058 200.326 81.2342 198.977 81.1273 197.701C80.9671 195.738 82.6396 192.184 84.5724 191.241C87.453 189.833 91.5113 189.766 93.6322 192.939C94.4151 194.117 95.5766 194.798 96.004 194.707C96.3618 194.644 96.55 194.361 96.9333 193.68L97.0099 193.541C97.5001 192.66 98.4781 191.682 99.7581 191.555C100.476 191.483 101.556 191.668 102.627 192.948C104.846 195.587 103.133 198.106 102.111 199.609C102.016 199.783 101.984 200.359 102.399 202.09L102.443 202.273L105.069 213.463C105.372 214.758 105.988 215.959 106.863 216.961C107.737 217.963 108.844 218.735 110.086 219.21L112.897 220.288C113.083 220.357 113.236 220.495 113.322 220.673C113.409 220.852 113.423 221.057 113.362 221.245C113.285 221.331 109.979 230.921 97.5674 230.921ZM89.0489 222.662C89.0698 223.513 89.2812 225.45 90.675 227.002C92.0688 228.554 94.1898 229.325 97.0773 229.381C106.86 229.587 110.607 223.496 111.587 221.427L109.515 220.634C108.038 220.069 106.723 219.151 105.683 217.96C104.644 216.769 103.912 215.342 103.552 213.802L100.882 202.436C100.543 201.014 100.258 199.558 100.82 198.733C102.037 196.942 102.794 195.548 101.431 193.926C100.915 193.316 100.397 193.027 99.8835 193.079C99.1866 193.144 98.6174 193.775 98.3317 194.284L98.2574 194.419C97.8648 195.132 97.3746 196.02 96.2596 196.217C94.9192 196.449 93.2396 195.141 92.3383 193.785C90.4985 191.018 86.8931 191.81 85.2414 192.623C84.0033 193.227 82.5281 196.052 82.6559 197.576C82.7442 198.663 83.1763 199.846 83.9405 201.093C84.0091 201.204 84.0483 201.33 84.0544 201.46L84.2611 206.153L85.4226 206.129C85.5577 206.125 85.6915 206.157 85.81 206.222C85.9285 206.287 86.0274 206.383 86.0963 206.499C86.7274 207.539 87.479 208.501 88.3357 209.365C88.6321 209.667 89.0167 209.868 89.4341 209.937C89.8515 210.007 90.2803 209.943 90.6588 209.753L92.6264 208.766C92.7315 208.716 92.8466 208.689 92.9632 208.689C93.0798 208.689 93.1949 208.716 93.3 208.766C93.4053 208.816 93.4979 208.889 93.5707 208.98C93.6436 209.071 93.6948 209.177 93.7205 209.291L94.5568 212.985C94.9709 214.845 94.7271 216.792 93.8668 218.493C93.0065 220.194 91.5829 221.545 89.8387 222.314L89.0489 222.662Z" fill="black"/>
<path d="M91.6342 405.484L98.2246 425.151C98.2246 425.151 91.0441 424.54 90.3588 424.673C89.6735 424.805 81.2734 406.736 81.2734 406.736L91.6342 405.484Z" fill="#FFBF9D"/>
<path d="M98.2246 425.92H98.1596C94.7749 425.632 90.9814 425.372 90.4936 425.432C89.7711 425.574 89.497 425.625 84.8695 416.094C82.6998 411.64 80.6091 407.106 80.5766 407.059C80.5254 406.949 80.501 406.829 80.5054 406.708C80.5097 406.587 80.5428 406.469 80.6017 406.363C80.6606 406.257 80.7438 406.166 80.8444 406.099C80.9451 406.031 81.0602 405.989 81.1806 405.974L91.5413 404.72C91.7169 404.7 91.8942 404.74 92.0435 404.835C92.1928 404.93 92.305 405.073 92.3613 405.24L98.961 424.907C98.9997 425.023 99.0103 425.146 98.992 425.266C98.9737 425.387 98.927 425.502 98.8558 425.6C98.7845 425.699 98.6908 425.78 98.5822 425.835C98.4737 425.891 98.3535 425.92 98.2316 425.92H98.2246ZM90.7445 423.892C92.0291 423.892 95.049 424.124 97.1258 424.289L91.1045 406.321L82.4164 407.373C85.8406 414.707 89.655 422.498 90.6469 423.892H90.7445Z" fill="black"/>
<path d="M96.7149 420.832C96.7149 420.832 86.8025 416.766 84.9696 421.868C82.6466 428.354 78.9925 438.254 78.9925 438.254C78.8456 438.657 78.7939 439.087 78.8413 439.513C78.8887 439.938 79.0339 440.347 79.2657 440.707C79.4974 441.067 79.8094 441.369 80.1771 441.588C80.5448 441.807 80.9583 441.938 81.3852 441.971C85.0091 442.264 90.4125 442.499 92.9306 441.616C96.9053 440.222 103.498 427.643 103.498 427.643L101.465 416.941C101.465 416.941 97.8694 416.423 96.7149 420.832Z" fill="#1176CA"/>
<path d="M87.216 443.002C85.2321 443.002 83.1414 442.884 81.3248 442.737C80.7815 442.695 80.2554 442.527 79.7874 442.248C79.3195 441.968 78.9222 441.585 78.6264 441.127C78.3307 440.669 78.1445 440.15 78.0823 439.608C78.02 439.067 78.0835 438.518 78.2677 438.005C78.3072 437.901 81.9404 428.03 84.2448 421.619C84.4402 421.057 84.7514 420.542 85.1584 420.108C85.5654 419.673 86.059 419.33 86.6074 419.098C89.6273 417.758 94.364 419.18 96.227 419.837C97.4536 416.545 100.202 415.985 101.57 416.178C101.729 416.201 101.877 416.272 101.993 416.383C102.11 416.494 102.188 416.638 102.218 416.796L104.251 427.498C104.284 427.668 104.257 427.845 104.176 427.998C103.48 429.315 97.3235 440.888 93.1815 442.34C91.7784 442.823 89.5739 443.002 87.216 443.002ZM89.6691 420.058C88.8356 420.034 88.0061 420.181 87.2323 420.492C86.8754 420.639 86.5538 420.86 86.2887 421.14C86.0236 421.42 85.821 421.754 85.6944 422.118C83.3876 428.534 79.7521 438.41 79.7149 438.509C79.6117 438.8 79.5766 439.111 79.6126 439.417C79.6486 439.723 79.7545 440.017 79.9223 440.276C80.0901 440.534 80.3152 440.751 80.5801 440.909C80.8451 441.067 81.1428 441.161 81.4502 441.186C86.8675 441.62 90.8562 441.509 92.6774 440.87C95.6347 439.831 100.789 431.09 102.694 427.501L100.82 417.681C99.9207 417.751 98.1784 418.255 97.4513 421.024C97.4233 421.13 97.3731 421.228 97.3042 421.313C97.2352 421.398 97.149 421.467 97.0512 421.516C96.9535 421.565 96.8464 421.593 96.7372 421.597C96.6279 421.602 96.5189 421.583 96.4175 421.542C96.378 421.521 92.7541 420.058 89.6691 420.058Z" fill="black"/>
<path d="M91.7133 438.444H81.5385C81.3345 438.444 81.1389 438.363 80.9947 438.219C80.8505 438.075 80.7695 437.879 80.7695 437.675C80.7695 437.471 80.8505 437.276 80.9947 437.131C81.1389 436.987 81.3345 436.906 81.5385 436.906H91.7133C91.9173 436.906 92.1128 436.987 92.257 437.131C92.4012 437.276 92.4822 437.471 92.4822 437.675C92.4822 437.879 92.4012 438.075 92.257 438.219C92.1128 438.363 91.9173 438.444 91.7133 438.444Z" fill="black"/>
<path d="M110.326 410.318L108.086 430.103L99.0752 427.632L99.7698 409.805L110.326 410.318Z" fill="#FFBF9D"/>
<path d="M108.086 430.871C108.017 430.871 107.948 430.861 107.882 430.843L98.8707 428.367C98.7036 428.32 98.557 428.219 98.4546 428.079C98.3521 427.939 98.2999 427.769 98.3062 427.595L99.0031 409.768C99.0069 409.667 99.0309 409.567 99.0735 409.475C99.1162 409.383 99.1768 409.3 99.2517 409.232C99.404 409.095 99.6043 409.023 99.8092 409.032L110.365 409.545C110.47 409.55 110.573 409.576 110.667 409.623C110.761 409.669 110.845 409.734 110.913 409.814C110.981 409.894 111.032 409.987 111.062 410.088C111.093 410.188 111.102 410.294 111.09 410.398L108.85 430.183C108.839 430.294 108.803 430.4 108.745 430.495C108.688 430.59 108.61 430.672 108.518 430.734C108.391 430.822 108.241 430.869 108.086 430.871ZM99.8673 427.049L107.424 429.124L109.471 411.044L100.506 410.609L99.8673 427.049Z" fill="black"/>
<path d="M112.098 441.46C112.105 441.88 112.029 442.297 111.873 442.688C111.718 443.078 111.486 443.433 111.192 443.733C110.898 444.032 110.547 444.271 110.159 444.433C109.772 444.596 109.356 444.68 108.936 444.68H94.6774C94.2233 444.68 93.7745 444.582 93.3616 444.394C92.9487 444.205 92.5813 443.929 92.2846 443.585C91.9878 443.242 91.7687 442.838 91.642 442.402C91.5153 441.966 91.4842 441.508 91.5506 441.058C92.0152 437.836 93.5786 432.498 98.2247 425.153C98.4759 424.758 98.8223 424.434 99.2319 424.208C99.6415 423.983 100.101 423.864 100.569 423.863H104.903C105.265 423.863 105.613 423.997 105.881 424.239C106.15 424.481 106.318 424.814 106.355 425.173L106.683 428.3L107.995 426.953C108.113 426.831 108.261 426.742 108.423 426.694C108.585 426.646 108.758 426.64 108.923 426.678C109.088 426.715 109.241 426.795 109.366 426.908C109.492 427.022 109.586 427.166 109.64 427.327C110.469 429.857 111.984 435.276 112.098 441.46Z" fill="#1176CA"/>
<path d="M108.936 445.444H94.6775C94.113 445.444 93.555 445.323 93.0416 445.088C92.5283 444.853 92.0716 444.51 91.7027 444.083C91.3338 443.656 91.0614 443.154 90.9041 442.612C90.7467 442.07 90.7082 441.5 90.791 440.942C91.2742 437.689 92.8423 432.219 97.5766 424.738C97.8951 424.233 98.3368 423.817 98.8602 423.53C99.3835 423.242 99.9714 423.092 100.569 423.094H104.903C105.455 423.092 105.987 423.295 106.396 423.664C106.806 424.033 107.064 424.541 107.12 425.089L107.278 426.585L107.445 426.413C107.655 426.197 107.917 426.038 108.207 425.952C108.496 425.867 108.802 425.857 109.096 425.925C109.39 425.992 109.662 426.135 109.885 426.338C110.108 426.541 110.275 426.798 110.37 427.085C111.252 429.775 112.751 435.215 112.867 441.443C112.875 441.965 112.78 442.484 112.587 442.968C112.393 443.453 112.105 443.894 111.739 444.266C111.373 444.639 110.937 444.935 110.456 445.137C109.975 445.339 109.458 445.443 108.936 445.444ZM100.573 424.629C100.236 424.63 99.9042 424.716 99.6084 424.878C99.3126 425.041 99.0621 425.275 98.8798 425.558C94.2895 432.811 92.7772 438.049 92.3149 441.165C92.2649 441.505 92.2887 441.851 92.3847 442.181C92.4807 442.511 92.6466 442.817 92.8712 443.077C93.0958 443.337 93.3738 443.546 93.6863 443.689C93.9988 443.832 94.3385 443.906 94.6821 443.906H108.941C109.259 443.906 109.573 443.842 109.866 443.719C110.16 443.596 110.425 443.416 110.648 443.189C110.871 442.962 111.046 442.693 111.164 442.398C111.281 442.103 111.339 441.787 111.334 441.469C111.224 435.443 109.77 430.17 108.915 427.563C108.905 427.528 108.885 427.496 108.857 427.471C108.83 427.446 108.796 427.429 108.76 427.422C108.723 427.412 108.684 427.412 108.648 427.423C108.611 427.434 108.579 427.454 108.553 427.482L107.24 428.832C107.138 428.936 107.008 429.01 106.865 429.043C106.722 429.076 106.573 429.068 106.435 429.019C106.297 428.97 106.175 428.883 106.085 428.767C105.995 428.652 105.94 428.513 105.926 428.367L105.598 425.238C105.579 425.067 105.497 424.909 105.369 424.794C105.24 424.679 105.073 424.617 104.901 424.618L100.573 424.629Z" fill="black"/>
<path d="M109.103 442.037H94.6657C94.5613 442.042 94.4568 442.027 94.3587 441.991C94.2606 441.955 94.1708 441.899 94.0948 441.827C94.0189 441.756 93.9585 441.669 93.9171 441.573C93.8758 441.477 93.8545 441.373 93.8545 441.269C93.8545 441.164 93.8758 441.061 93.9171 440.965C93.9585 440.869 94.0189 440.782 94.0948 440.71C94.1708 440.639 94.2606 440.583 94.3587 440.547C94.4568 440.511 94.5613 440.495 94.6657 440.501H109.103C109.208 440.495 109.312 440.511 109.41 440.547C109.508 440.583 109.598 440.639 109.674 440.71C109.75 440.782 109.811 440.869 109.852 440.965C109.893 441.061 109.914 441.164 109.914 441.269C109.914 441.373 109.893 441.477 109.852 441.573C109.811 441.669 109.75 441.756 109.674 441.827C109.598 441.899 109.508 441.955 109.41 441.991C109.312 442.027 109.208 442.042 109.103 442.037Z" fill="black"/>
<path d="M76.4859 291.497C76.6697 291.047 76.9505 290.643 77.3083 290.313C77.666 289.984 78.0919 289.738 78.5557 289.592C83.7686 287.966 101.944 283.647 120.654 295.646C121.088 295.924 121.452 296.3 121.716 296.744C121.98 297.187 122.137 297.686 122.175 298.201C122.851 307.709 125.374 357.413 109.652 416.262L99.0611 415.507L96.9007 314.885C96.9007 314.885 81.211 351.779 93.9691 410.48L82.9532 412.515C82.9532 412.515 66.8314 391.317 63.9439 358.925C61.3909 330.278 73.6402 298.459 76.4859 291.497Z" fill="black"/>
<path d="M106.952 369.854C106.748 369.858 106.551 369.781 106.404 369.64C106.257 369.499 106.171 369.305 106.167 369.101C106.163 368.897 106.24 368.7 106.381 368.553C106.522 368.405 106.716 368.32 106.92 368.316C115.652 367.94 116.677 355.635 116.697 355.511C116.713 355.308 116.808 355.12 116.962 354.987C117.038 354.921 117.127 354.871 117.223 354.839C117.318 354.808 117.419 354.795 117.52 354.803C117.62 354.81 117.718 354.838 117.808 354.883C117.898 354.928 117.979 354.991 118.044 355.067C118.11 355.144 118.16 355.232 118.192 355.328C118.223 355.424 118.236 355.525 118.228 355.625C118.228 355.765 117.083 369.417 106.985 369.851L106.952 369.854Z" fill="#EBF5FF"/>
<path d="M95.9786 324.885H95.9554C95.7518 324.879 95.5592 324.792 95.4198 324.643C95.2805 324.495 95.2057 324.297 95.212 324.093L95.4954 314.534C95.5197 313.73 95.3439 312.933 94.9838 312.214C94.6238 311.495 94.0907 310.877 93.4326 310.415L89.3068 307.516C89.2209 307.459 89.1473 307.386 89.0902 307.3C89.0332 307.215 88.994 307.118 88.9748 307.017C88.9557 306.916 88.9571 306.812 88.9789 306.712C89.0006 306.611 89.0424 306.516 89.1017 306.432C89.161 306.348 89.2365 306.276 89.3239 306.222C89.4113 306.167 89.5087 306.131 89.6104 306.115C89.712 306.099 89.8159 306.103 89.9158 306.128C90.0157 306.153 90.1096 306.198 90.1919 306.259L94.3153 309.159C95.1814 309.767 95.8828 310.581 96.3564 311.527C96.83 312.473 97.061 313.523 97.0286 314.581L96.7452 324.14C96.7392 324.339 96.6558 324.529 96.5128 324.668C96.3697 324.807 96.1782 324.885 95.9786 324.885Z" fill="#EBF5FF"/>
<path d="M250.655 389.755C254.971 380.872 255.383 371.924 250.655 362.882L254.047 358.812L346.829 361.865L343.63 391.34L253.815 392.376L250.655 389.755Z" fill="white"/>
<path d="M253.819 393.145C253.64 393.144 253.467 393.082 253.329 392.968L250.165 390.345C250.032 390.235 249.94 390.084 249.904 389.916C249.867 389.747 249.888 389.571 249.963 389.416C254.404 380.28 254.407 371.715 249.963 363.236C249.892 363.101 249.863 362.949 249.879 362.798C249.895 362.647 249.956 362.504 250.053 362.388L253.445 358.32C253.519 358.229 253.613 358.157 253.72 358.109C253.827 358.061 253.944 358.039 254.061 358.044L346.847 361.096C346.953 361.099 347.057 361.124 347.152 361.17C347.248 361.215 347.333 361.28 347.403 361.36C347.472 361.439 347.524 361.533 347.556 361.634C347.587 361.735 347.597 361.841 347.586 361.946L344.399 391.43C344.381 391.619 344.294 391.795 344.155 391.923C344.015 392.052 343.833 392.125 343.644 392.127L253.828 393.163L253.819 393.145ZM251.605 389.544L254.093 391.604L342.944 390.58L345.981 362.606L254.397 359.586L251.57 362.978C255.859 371.494 255.87 380.424 251.605 389.544Z" fill="black"/>
<path d="M421.147 355.571H248.934C248.447 355.559 247.964 355.644 247.511 355.822C247.058 356 246.645 356.266 246.297 356.606C245.949 356.945 245.672 357.351 245.483 357.799C245.294 358.247 245.197 358.729 245.197 359.215C245.197 359.702 245.294 360.183 245.483 360.631C245.672 361.079 245.949 361.485 246.297 361.825C246.645 362.164 247.058 362.431 247.511 362.608C247.964 362.786 248.447 362.871 248.934 362.859H328.107C330.891 362.859 333.562 363.965 335.53 365.934C337.499 367.902 338.605 370.572 338.605 373.357V379.259C338.605 382.044 337.499 384.714 335.53 386.682C333.562 388.651 330.891 389.757 328.107 389.757H248.934C247.967 389.757 247.04 390.141 246.356 390.825C245.673 391.508 245.289 392.435 245.289 393.402C245.289 394.369 245.673 395.296 246.356 395.979C247.04 396.663 247.967 397.047 248.934 397.047H421.147C423.689 397.047 426.206 396.546 428.554 395.573C430.903 394.6 433.037 393.175 434.834 391.377C436.631 389.579 438.057 387.445 439.03 385.097C440.002 382.748 440.503 380.231 440.502 377.689V374.939C440.504 372.396 440.004 369.878 439.032 367.528C438.06 365.178 436.635 363.043 434.837 361.245C433.04 359.446 430.906 358.019 428.557 357.046C426.208 356.073 423.69 355.571 421.147 355.571Z" fill="#77A9E3"/>
<path d="M421.147 397.812H248.934C247.763 397.812 246.641 397.347 245.813 396.52C244.985 395.692 244.52 394.569 244.52 393.399C244.52 392.228 244.985 391.105 245.813 390.278C246.641 389.45 247.763 388.985 248.934 388.985H328.107C330.687 388.982 333.159 387.956 334.983 386.132C336.807 384.308 337.833 381.835 337.836 379.256V373.353C337.833 370.774 336.807 368.301 334.983 366.477C333.159 364.653 330.687 363.627 328.107 363.624H248.934C247.763 363.624 246.641 363.159 245.813 362.332C244.985 361.504 244.52 360.381 244.52 359.211C244.52 358.04 244.985 356.917 245.813 356.09C246.641 355.262 247.763 354.797 248.934 354.797H421.147C426.482 354.803 431.598 356.925 435.37 360.698C439.143 364.471 441.265 369.586 441.271 374.921V377.683C441.267 383.02 439.145 388.136 435.372 391.91C431.599 395.683 426.483 397.806 421.147 397.812ZM248.934 390.523C248.185 390.544 247.474 390.856 246.952 391.394C246.429 391.931 246.137 392.651 246.137 393.4C246.137 394.149 246.429 394.869 246.952 395.406C247.474 395.943 248.185 396.256 248.934 396.277H421.147C426.074 396.27 430.797 394.31 434.281 390.826C437.764 387.342 439.725 382.619 439.731 377.693V374.938C439.725 370.011 437.764 365.288 434.281 361.804C430.797 358.32 426.074 356.36 421.147 356.353H248.934C248.185 356.375 247.474 356.687 246.952 357.224C246.429 357.761 246.137 358.481 246.137 359.23C246.137 359.98 246.429 360.699 246.952 361.236C247.474 361.774 248.185 362.086 248.934 362.107H328.107C331.094 362.111 333.958 363.298 336.07 365.41C338.182 367.522 339.37 370.385 339.374 373.372V379.275C339.37 382.261 338.182 385.125 336.07 387.237C333.958 389.348 331.094 390.536 328.107 390.539L248.934 390.523Z" fill="black"/>
<path d="M302.9 371.452H296.119C296.018 371.452 295.918 371.432 295.825 371.393C295.731 371.355 295.647 371.298 295.575 371.227C295.504 371.155 295.447 371.071 295.409 370.977C295.37 370.884 295.35 370.784 295.35 370.683C295.35 370.582 295.37 370.482 295.409 370.389C295.447 370.295 295.504 370.211 295.575 370.139C295.647 370.068 295.731 370.011 295.825 369.973C295.918 369.934 296.018 369.914 296.119 369.914H302.9C303.104 369.914 303.299 369.995 303.444 370.139C303.588 370.283 303.669 370.479 303.669 370.683C303.669 370.887 303.588 371.082 303.444 371.227C303.299 371.371 303.104 371.452 302.9 371.452Z" fill="#EBF5FF"/>
<path d="M291.875 371.452H255.977C255.773 371.452 255.577 371.371 255.433 371.227C255.289 371.082 255.208 370.887 255.208 370.683C255.208 370.479 255.289 370.283 255.433 370.139C255.577 369.995 255.773 369.914 255.977 369.914H291.875C292.079 369.914 292.274 369.995 292.418 370.139C292.563 370.283 292.644 370.479 292.644 370.683C292.644 370.887 292.563 371.082 292.418 371.227C292.274 371.371 292.079 371.452 291.875 371.452Z" fill="#EBF5FF"/>
<path d="M298.779 375.834H256.307C256.202 375.839 256.098 375.824 256 375.788C255.902 375.752 255.812 375.696 255.736 375.624C255.66 375.552 255.6 375.466 255.558 375.37C255.517 375.274 255.496 375.17 255.496 375.066C255.496 374.961 255.517 374.858 255.558 374.762C255.6 374.666 255.66 374.579 255.736 374.507C255.812 374.435 255.902 374.38 256 374.344C256.098 374.308 256.202 374.292 256.307 374.298H298.779C298.883 374.292 298.988 374.308 299.086 374.344C299.184 374.38 299.274 374.435 299.35 374.507C299.425 374.579 299.486 374.666 299.527 374.762C299.569 374.858 299.59 374.961 299.59 375.066C299.59 375.17 299.569 375.274 299.527 375.37C299.486 375.466 299.425 375.552 299.35 375.624C299.274 375.696 299.184 375.752 299.086 375.788C298.988 375.824 298.883 375.839 298.779 375.834Z" fill="#EBF5FF"/>
<path d="M309.463 383.706H301.745C301.542 383.706 301.346 383.625 301.202 383.481C301.058 383.336 300.977 383.141 300.977 382.937C300.977 382.733 301.058 382.537 301.202 382.393C301.346 382.249 301.542 382.168 301.745 382.168H309.463C309.667 382.168 309.862 382.249 310.006 382.393C310.15 382.537 310.232 382.733 310.232 382.937C310.232 383.141 310.15 383.336 310.006 383.481C309.862 383.625 309.667 383.706 309.463 383.706Z" fill="#EBF5FF"/>
<path d="M298.449 383.706H255.977C255.773 383.706 255.577 383.625 255.433 383.481C255.289 383.336 255.208 383.141 255.208 382.937C255.208 382.733 255.289 382.537 255.433 382.393C255.577 382.249 255.773 382.168 255.977 382.168H298.449C298.653 382.168 298.848 382.249 298.993 382.393C299.137 382.537 299.218 382.733 299.218 382.937C299.218 383.141 299.137 383.336 298.993 383.481C298.848 383.625 298.653 383.706 298.449 383.706Z" fill="#EBF5FF"/>
<path d="M253.333 439.414H408.888V401.305H253.333C257.926 414.177 258.052 426.886 253.333 439.414Z" fill="white"/>
<path d="M408.888 440.181H253.334C253.209 440.181 253.087 440.151 252.977 440.093C252.867 440.035 252.772 439.951 252.702 439.849C252.632 439.748 252.588 439.632 252.573 439.511C252.558 439.389 252.573 439.266 252.616 439.152C257.183 427.026 257.181 414.381 252.616 401.57C252.574 401.454 252.561 401.33 252.577 401.208C252.593 401.086 252.639 400.969 252.71 400.868C252.781 400.768 252.875 400.686 252.984 400.629C253.094 400.572 253.215 400.543 253.338 400.543H408.893C409.097 400.543 409.293 400.624 409.437 400.768C409.581 400.912 409.662 401.108 409.662 401.312V439.421C409.66 439.624 409.577 439.818 409.432 439.961C409.287 440.103 409.092 440.182 408.888 440.181ZM254.432 438.645H408.119V402.072H254.414C258.628 414.518 258.632 426.812 254.432 438.645Z" fill="black"/>
<path d="M390.162 403.182H252.265C251.864 403.193 251.464 403.124 251.09 402.978C250.716 402.832 250.375 402.613 250.087 402.333C249.799 402.053 249.571 401.718 249.414 401.348C249.258 400.978 249.178 400.581 249.178 400.179C249.178 399.778 249.258 399.381 249.414 399.011C249.571 398.641 249.799 398.306 250.087 398.026C250.375 397.746 250.716 397.527 251.09 397.381C251.464 397.235 251.864 397.166 252.265 397.177H431.21C432.943 397.177 434.659 397.518 436.26 398.182C437.861 398.845 439.316 399.817 440.541 401.042C441.767 402.268 442.738 403.723 443.401 405.324C444.064 406.925 444.405 408.641 444.405 410.374V431.116C444.405 434.616 443.015 437.972 440.541 440.447C438.066 442.922 434.71 444.313 431.21 444.314H252.265C251.468 444.314 250.704 443.997 250.141 443.434C249.578 442.87 249.261 442.107 249.261 441.31C249.261 440.513 249.578 439.749 250.141 439.186C250.704 438.623 251.468 438.306 252.265 438.306H390.162C392.635 438.306 395.006 437.324 396.754 435.576C398.503 433.827 399.485 431.456 399.485 428.984V412.504C399.485 410.032 398.503 407.661 396.754 405.912C395.006 404.164 392.635 403.182 390.162 403.182Z" fill="#1176CA"/>
<path d="M431.208 445.091H252.265C251.265 445.091 250.306 444.694 249.599 443.987C248.892 443.28 248.495 442.321 248.495 441.321C248.495 440.321 248.892 439.362 249.599 438.655C250.306 437.948 251.265 437.551 252.265 437.551H390.163C392.431 437.548 394.605 436.645 396.208 435.041C397.812 433.437 398.714 431.263 398.716 428.995V412.515C398.713 410.248 397.811 408.074 396.207 406.471C394.604 404.867 392.43 403.965 390.163 403.962H252.265C251.762 403.974 251.261 403.886 250.793 403.702C250.324 403.518 249.897 403.243 249.537 402.891C249.177 402.54 248.891 402.12 248.695 401.656C248.5 401.192 248.399 400.694 248.399 400.191C248.399 399.687 248.5 399.189 248.695 398.725C248.891 398.261 249.177 397.841 249.537 397.49C249.897 397.139 250.324 396.863 250.793 396.679C251.261 396.495 251.762 396.407 252.265 396.419H431.208C434.911 396.423 438.461 397.896 441.079 400.514C443.697 403.133 445.17 406.682 445.174 410.385V431.128C445.17 434.83 443.697 438.38 441.079 440.997C438.461 443.615 434.911 445.088 431.208 445.091ZM252.265 439.086C251.972 439.086 251.681 439.144 251.41 439.256C251.139 439.369 250.892 439.533 250.685 439.741C250.477 439.948 250.313 440.195 250.2 440.466C250.088 440.737 250.03 441.028 250.03 441.321C250.03 441.614 250.088 441.905 250.2 442.176C250.313 442.447 250.477 442.694 250.685 442.901C250.892 443.109 251.139 443.273 251.41 443.386C251.681 443.498 251.972 443.556 252.265 443.556H431.208C434.503 443.552 437.662 442.241 439.992 439.912C442.322 437.582 443.633 434.423 443.636 431.128V410.385C443.633 407.09 442.322 403.931 439.992 401.601C437.662 399.271 434.503 397.961 431.208 397.957H252.265C251.672 397.957 251.104 398.192 250.685 398.612C250.266 399.031 250.03 399.599 250.03 400.192C250.03 400.784 250.266 401.353 250.685 401.772C251.104 402.191 251.672 402.426 252.265 402.426H390.163C392.838 402.429 395.403 403.493 397.295 405.384C399.186 407.275 400.251 409.84 400.254 412.515V428.995C400.251 431.67 399.187 434.235 397.295 436.127C395.403 438.019 392.838 439.083 390.163 439.086H252.265Z" fill="black"/>
<path d="M281.319 411.119H258.349C258.244 411.124 258.14 411.109 258.042 411.073C257.944 411.037 257.854 410.981 257.778 410.909C257.702 410.838 257.642 410.751 257.6 410.655C257.559 410.559 257.538 410.455 257.538 410.351C257.538 410.246 257.559 410.143 257.6 410.047C257.642 409.951 257.702 409.864 257.778 409.792C257.854 409.721 257.944 409.665 258.042 409.629C258.14 409.593 258.244 409.577 258.349 409.583H281.319C281.515 409.594 281.7 409.68 281.835 409.822C281.97 409.965 282.046 410.154 282.046 410.351C282.046 410.548 281.97 410.737 281.835 410.88C281.7 411.022 281.515 411.108 281.319 411.119Z" fill="#EBF5FF"/>
<path d="M327.001 411.119H285.247C285.143 411.124 285.038 411.109 284.94 411.073C284.842 411.037 284.752 410.981 284.676 410.909C284.6 410.838 284.54 410.751 284.499 410.655C284.457 410.559 284.436 410.455 284.436 410.351C284.436 410.246 284.457 410.143 284.499 410.047C284.54 409.951 284.6 409.864 284.676 409.792C284.752 409.721 284.842 409.665 284.94 409.629C285.038 409.593 285.143 409.577 285.247 409.583H327.001C327.198 409.594 327.382 409.68 327.518 409.822C327.653 409.965 327.728 410.154 327.728 410.351C327.728 410.548 327.653 410.737 327.518 410.88C327.382 411.022 327.198 411.108 327.001 411.119Z" fill="#EBF5FF"/>
<path d="M316.222 416.21H258.823C258.619 416.21 258.423 416.129 258.279 415.985C258.135 415.84 258.054 415.645 258.054 415.441C258.054 415.237 258.135 415.041 258.279 414.897C258.423 414.753 258.619 414.672 258.823 414.672H316.222C316.426 414.672 316.622 414.753 316.766 414.897C316.91 415.041 316.991 415.237 316.991 415.441C316.991 415.645 316.91 415.84 316.766 415.985C316.622 416.129 316.426 416.21 316.222 416.21Z" fill="#EBF5FF"/>
<path d="M332.76 416.21H321.08C320.876 416.21 320.68 416.129 320.536 415.985C320.392 415.84 320.311 415.645 320.311 415.441C320.311 415.237 320.392 415.041 320.536 414.897C320.68 414.753 320.876 414.672 321.08 414.672H332.76C332.964 414.672 333.16 414.753 333.304 414.897C333.448 415.041 333.529 415.237 333.529 415.441C333.529 415.645 333.448 415.84 333.304 415.985C333.16 416.129 332.964 416.21 332.76 416.21Z" fill="#EBF5FF"/>
<path d="M319.691 426.825H258.827C258.631 426.814 258.446 426.728 258.311 426.585C258.176 426.443 258.101 426.253 258.101 426.057C258.101 425.86 258.176 425.671 258.311 425.528C258.446 425.385 258.631 425.3 258.827 425.289H319.691C319.887 425.3 320.072 425.385 320.207 425.528C320.342 425.671 320.417 425.86 320.417 426.057C320.417 426.253 320.342 426.443 320.207 426.585C320.072 426.728 319.887 426.814 319.691 426.825Z" fill="#EBF5FF"/>
<path d="M327.002 426.825H321.712C321.516 426.814 321.331 426.728 321.196 426.585C321.061 426.443 320.985 426.253 320.985 426.057C320.985 425.86 321.061 425.671 321.196 425.528C321.331 425.385 321.516 425.3 321.712 425.289H327.002C327.198 425.3 327.383 425.385 327.518 425.528C327.653 425.671 327.728 425.86 327.728 426.057C327.728 426.253 327.653 426.443 327.518 426.585C327.383 426.728 327.198 426.814 327.002 426.825Z" fill="#EBF5FF"/>
<path d="M82.7443 176.679C83.2832 175.362 89.2487 160.058 80.0426 146.35C73.5799 136.726 61.4281 130.553 49.5365 132.846C47.5294 133.234 34.8782 135.68 30.4877 147.27C27.5374 155.075 29.2472 164.614 35.2569 170.438C42.3979 177.36 52.6657 176.18 54.1826 175.983C64.8105 174.589 68.9733 166.598 75.3872 168.486C79.3201 169.643 81.5386 173.762 82.7443 176.679Z" fill="white"/>
<path d="M82.7436 177.451C82.5926 177.451 82.4446 177.408 82.3182 177.325C82.1918 177.243 82.0925 177.125 82.0328 176.986C80.2603 172.663 77.9535 170.056 75.1775 169.239C72.1947 168.358 69.6673 169.905 66.4661 171.864C63.4044 173.736 59.5946 176.066 54.2888 176.758C51.471 177.125 41.7444 177.797 34.7266 171.004C28.6867 165.148 26.6494 155.282 29.7762 147.012C33.8694 136.191 44.855 132.983 49.3895 132.105C61.0395 129.854 73.6118 135.411 80.6784 145.936C90.031 159.874 84.163 175.274 83.4661 176.986C83.4058 177.127 83.3048 177.246 83.176 177.329C83.0473 177.412 82.8967 177.454 82.7436 177.451ZM54.6164 133.134C52.9606 133.131 51.3083 133.287 49.6822 133.599C45.4009 134.426 35.0332 137.441 31.2141 147.537C28.2964 155.249 30.1804 164.439 35.7975 169.882C42.4809 176.359 52.2074 175.457 54.089 175.225C59.0719 174.577 62.5751 172.437 65.6647 170.542C69.0494 168.472 71.9717 166.683 75.6119 167.754C78.439 168.588 80.8062 170.9 82.6623 174.637C84.1351 170.04 86.8717 157.912 79.4101 146.782C73.6699 138.242 64.1478 133.134 54.6164 133.134Z" fill="black"/>
<path d="M52.2519 158.896C52.3278 157.245 52.5841 155.905 53.0208 154.875C53.4575 153.845 54.2179 152.785 55.302 151.695C56.3861 150.61 57.1155 149.749 57.4903 149.109C57.8479 148.517 58.056 147.848 58.0966 147.158C58.188 145.165 57.3362 144.284 55.5413 144.516C54.7356 144.6 53.9901 144.981 53.4506 145.585C52.8958 146.235 52.5766 147.054 52.5446 147.908L47.5361 148.554C47.6647 146.3 48.4568 144.447 49.9126 142.992C51.3684 141.538 53.3042 140.655 55.7202 140.342C58.1593 140.032 60.0255 140.391 61.3187 141.42C62.6118 142.448 63.2065 144.067 63.1028 146.277C63.0515 147.296 62.7838 148.292 62.3176 149.2C61.839 150.147 61.0275 151.232 59.883 152.452L58.4335 154.018C57.5677 154.895 56.994 156.019 56.7911 157.235L56.6819 158.315L52.2519 158.896ZM51.5015 164.374C51.5295 163.606 51.8416 162.877 52.3773 162.327C52.916 161.753 53.6415 161.389 54.4239 161.3C55.2416 161.195 55.9006 161.364 56.4008 161.807C56.901 162.25 57.1333 162.864 57.0977 163.651C57.0701 164.406 56.7648 165.124 56.2405 165.668C55.6967 166.243 54.965 166.605 54.1777 166.687C53.3367 166.797 52.6716 166.632 52.1822 166.193C51.692 165.749 51.4667 165.143 51.5015 164.367V164.374Z" fill="#1176CA"/>
<path d="M230.677 418.581C229.991 418.581 229.308 418.573 228.628 418.558C228.527 418.555 228.428 418.533 228.335 418.492C228.243 418.451 228.16 418.393 228.09 418.32C228.02 418.246 227.966 418.16 227.929 418.066C227.893 417.972 227.875 417.871 227.878 417.77C227.878 417.669 227.899 417.569 227.939 417.476C227.98 417.383 228.038 417.299 228.111 417.229C228.185 417.159 228.271 417.104 228.366 417.068C228.461 417.032 228.562 417.016 228.663 417.02C229.344 417.036 230.027 417.048 230.707 417.046C232.05 417.046 233.414 417.013 234.756 416.953C234.96 416.943 235.158 417.015 235.309 417.153C235.459 417.29 235.549 417.481 235.558 417.684C235.567 417.888 235.495 418.086 235.358 418.237C235.221 418.387 235.029 418.477 234.826 418.486C233.465 418.551 232.071 418.588 230.677 418.581ZM222.514 418.202H222.442C220.395 418.012 218.33 417.738 216.302 417.42C216.107 417.38 215.935 417.267 215.821 417.104C215.708 416.94 215.663 416.739 215.694 416.542C215.726 416.346 215.833 416.17 215.992 416.05C216.152 415.931 216.351 415.878 216.548 415.903C218.542 416.226 220.572 416.486 222.588 416.672C222.783 416.693 222.962 416.787 223.089 416.936C223.216 417.084 223.282 417.276 223.273 417.471C223.264 417.666 223.181 417.851 223.041 417.987C222.901 418.123 222.714 418.201 222.519 418.205L222.514 418.202ZM240.915 417.996C240.718 417.996 240.529 417.921 240.385 417.786C240.242 417.651 240.156 417.466 240.145 417.27C240.134 417.073 240.199 416.88 240.326 416.73C240.453 416.58 240.633 416.484 240.829 416.462C242.834 416.23 244.862 415.928 246.852 415.561C246.952 415.543 247.054 415.544 247.152 415.565C247.251 415.586 247.345 415.626 247.428 415.683C247.512 415.74 247.583 415.813 247.638 415.898C247.693 415.983 247.731 416.077 247.749 416.177C247.768 416.276 247.766 416.378 247.745 416.477C247.724 416.576 247.684 416.669 247.627 416.753C247.57 416.836 247.497 416.907 247.412 416.962C247.327 417.017 247.233 417.055 247.133 417.073C245.108 417.447 243.045 417.756 241.003 417.991L240.915 417.996ZM210.404 416.232C210.345 416.232 210.287 416.225 210.23 416.212C208.232 415.747 206.22 415.201 204.253 414.585C204.068 414.518 203.916 414.382 203.828 414.206C203.74 414.029 203.723 413.826 203.781 413.637C203.839 413.449 203.967 413.29 204.138 413.193C204.31 413.097 204.512 413.069 204.703 413.117C206.638 413.712 208.615 414.246 210.578 414.706C210.761 414.75 210.922 414.859 211.03 415.013C211.138 415.167 211.186 415.355 211.164 415.542C211.143 415.729 211.053 415.901 210.913 416.027C210.773 416.152 210.592 416.222 210.404 416.223V416.232ZM198.673 412.622C198.578 412.622 198.485 412.605 198.396 412.571C196.48 411.837 194.561 411.024 192.693 410.155C192.599 410.115 192.513 410.056 192.442 409.982C192.37 409.907 192.315 409.82 192.278 409.723C192.241 409.627 192.224 409.525 192.228 409.422C192.231 409.319 192.256 409.218 192.299 409.124C192.342 409.031 192.404 408.947 192.48 408.878C192.557 408.809 192.646 408.756 192.743 408.723C192.841 408.689 192.944 408.675 193.046 408.681C193.149 408.688 193.249 408.715 193.341 408.762C195.177 409.614 197.058 410.413 198.949 411.138C199.118 411.201 199.259 411.322 199.348 411.479C199.436 411.636 199.467 411.819 199.434 411.996C199.401 412.173 199.306 412.333 199.167 412.448C199.028 412.562 198.853 412.624 198.673 412.622ZM187.522 407.454C187.393 407.454 187.266 407.422 187.153 407.361C185.35 406.369 183.557 405.305 181.826 404.197C181.662 404.083 181.549 403.911 181.51 403.716C181.471 403.52 181.509 403.317 181.616 403.15C181.724 402.982 181.892 402.862 182.086 402.816C182.28 402.77 182.484 402.801 182.655 402.903C184.358 403.992 186.119 405.038 187.894 406.013C188.042 406.096 188.159 406.226 188.226 406.382C188.293 406.538 188.306 406.712 188.264 406.877C188.221 407.042 188.125 407.187 187.991 407.292C187.857 407.396 187.692 407.453 187.522 407.454ZM177.178 400.833C177.01 400.835 176.847 400.782 176.713 400.682C175.059 399.458 173.424 398.164 171.856 396.833C171.768 396.771 171.694 396.692 171.638 396.6C171.583 396.508 171.547 396.406 171.534 396.299C171.521 396.193 171.53 396.085 171.56 395.982C171.591 395.879 171.643 395.784 171.713 395.702C171.783 395.621 171.869 395.555 171.966 395.509C172.063 395.463 172.169 395.437 172.276 395.434C172.383 395.431 172.49 395.451 172.589 395.492C172.688 395.533 172.778 395.594 172.852 395.671C174.392 396.982 176 398.255 177.626 399.458C177.76 399.554 177.859 399.689 177.91 399.846C177.96 400.002 177.96 400.17 177.908 400.326C177.856 400.482 177.755 400.617 177.621 400.712C177.487 400.806 177.326 400.855 177.161 400.852L177.178 400.833ZM167.814 392.881C167.614 392.882 167.422 392.803 167.279 392.663C165.804 391.232 164.359 389.729 162.982 388.196C162.856 388.043 162.794 387.847 162.809 387.649C162.823 387.452 162.914 387.268 163.061 387.135C163.209 387.003 163.402 386.932 163.6 386.939C163.798 386.945 163.986 387.027 164.125 387.169C165.479 388.677 166.901 390.154 168.35 391.562C168.46 391.669 168.535 391.806 168.566 391.955C168.597 392.105 168.583 392.261 168.526 392.402C168.468 392.544 168.37 392.665 168.243 392.75C168.116 392.836 167.967 392.881 167.814 392.881ZM159.602 383.743C159.485 383.743 159.369 383.717 159.264 383.666C159.159 383.615 159.067 383.54 158.995 383.448C157.725 381.821 156.496 380.142 155.339 378.441C155.277 378.358 155.233 378.263 155.21 378.163C155.186 378.062 155.182 377.958 155.2 377.856C155.217 377.754 155.255 377.656 155.311 377.569C155.367 377.482 155.44 377.407 155.525 377.349C155.611 377.291 155.707 377.251 155.809 377.23C155.91 377.21 156.015 377.211 156.116 377.232C156.217 377.254 156.313 377.295 156.398 377.355C156.483 377.414 156.555 377.49 156.61 377.577C157.746 379.25 158.956 380.906 160.206 382.5C160.294 382.613 160.35 382.749 160.365 382.892C160.38 383.036 160.355 383.18 160.292 383.31C160.229 383.439 160.131 383.549 160.009 383.625C159.887 383.702 159.746 383.742 159.602 383.743ZM152.695 373.575C152.561 373.575 152.428 373.541 152.312 373.474C152.195 373.407 152.098 373.31 152.031 373.194C150.993 371.417 150.001 369.579 149.088 367.735C148.997 367.552 148.983 367.341 149.048 367.148C149.113 366.955 149.251 366.796 149.434 366.705C149.616 366.615 149.827 366.601 150.02 366.665C150.213 366.73 150.372 366.869 150.463 367.052C151.362 368.864 152.338 370.671 153.357 372.42C153.408 372.507 153.442 372.603 153.455 372.703C153.469 372.803 153.463 372.905 153.437 373.003C153.411 373.1 153.367 373.192 153.306 373.272C153.245 373.352 153.168 373.419 153.081 373.47C152.969 373.537 152.842 373.573 152.712 373.575H152.695ZM147.236 362.568C147.085 362.569 146.937 362.525 146.811 362.443C146.684 362.36 146.585 362.242 146.525 362.104C145.74 360.203 145.008 358.252 144.353 356.296C144.3 356.106 144.321 355.902 144.414 355.728C144.506 355.553 144.662 355.421 144.849 355.358C145.036 355.295 145.241 355.307 145.42 355.391C145.598 355.475 145.738 355.624 145.81 355.808C146.453 357.725 147.173 359.643 147.945 361.511C147.993 361.627 148.012 361.753 148 361.878C147.989 362.003 147.947 362.123 147.878 362.228C147.809 362.333 147.716 362.419 147.606 362.48C147.496 362.54 147.373 362.573 147.248 362.575L147.236 362.568ZM143.331 350.927C143.161 350.927 142.996 350.871 142.862 350.767C142.727 350.663 142.631 350.518 142.588 350.354C142.067 348.37 141.605 346.337 141.217 344.314C141.185 344.116 141.232 343.914 141.347 343.75C141.462 343.586 141.636 343.474 141.832 343.436C142.029 343.399 142.232 343.439 142.399 343.549C142.566 343.66 142.684 343.83 142.727 344.026C143.108 346.017 143.561 348.014 144.075 349.966C144.123 350.162 144.093 350.369 143.991 350.543C143.888 350.716 143.721 350.843 143.526 350.895C143.463 350.914 143.397 350.925 143.331 350.927ZM141.008 338.869C140.823 338.869 140.644 338.802 140.504 338.68C140.365 338.558 140.274 338.39 140.249 338.207C139.967 336.197 139.698 334.141 139.449 332.097C139.434 331.995 139.44 331.892 139.465 331.792C139.491 331.692 139.536 331.599 139.598 331.517C139.661 331.435 139.739 331.367 139.828 331.316C139.917 331.265 140.016 331.232 140.118 331.22C140.22 331.208 140.324 331.216 140.423 331.245C140.521 331.273 140.613 331.321 140.693 331.386C140.773 331.45 140.839 331.53 140.888 331.621C140.936 331.712 140.966 331.811 140.976 331.913C141.224 333.948 141.491 335.993 141.77 337.995C141.784 338.095 141.779 338.196 141.753 338.294C141.728 338.392 141.684 338.483 141.623 338.564C141.563 338.644 141.487 338.712 141.4 338.763C141.313 338.814 141.217 338.848 141.117 338.862C141.081 338.866 141.045 338.869 141.008 338.869ZM139.521 326.666C139.33 326.665 139.146 326.594 139.006 326.465C138.865 326.336 138.777 326.159 138.759 325.969C138.548 323.952 138.351 321.89 138.172 319.836C138.159 319.733 138.166 319.629 138.195 319.529C138.223 319.43 138.271 319.337 138.336 319.256C138.401 319.175 138.482 319.109 138.573 319.06C138.665 319.011 138.765 318.982 138.868 318.973C138.971 318.964 139.075 318.976 139.174 319.008C139.272 319.04 139.363 319.092 139.441 319.16C139.519 319.229 139.582 319.312 139.627 319.405C139.672 319.499 139.698 319.6 139.703 319.704C139.881 321.748 140.077 323.801 140.288 325.811C140.308 326.013 140.247 326.216 140.119 326.374C139.991 326.532 139.805 326.632 139.603 326.654L139.521 326.666ZM138.453 314.416C138.258 314.416 138.071 314.342 137.929 314.21C137.786 314.077 137.7 313.895 137.686 313.701C137.545 311.664 137.417 309.594 137.305 307.552C137.298 307.35 137.37 307.153 137.506 307.004C137.642 306.855 137.831 306.765 138.033 306.755C138.235 306.744 138.432 306.813 138.584 306.947C138.735 307.081 138.827 307.269 138.841 307.47C138.95 309.503 139.073 311.564 139.219 313.594C139.227 313.695 139.214 313.796 139.182 313.892C139.15 313.987 139.1 314.076 139.033 314.152C138.967 314.228 138.886 314.291 138.796 314.336C138.705 314.381 138.607 314.407 138.506 314.414L138.453 314.416ZM137.798 302.139C137.599 302.139 137.408 302.061 137.265 301.923C137.122 301.785 137.038 301.597 137.031 301.398C136.954 299.331 136.899 297.258 136.862 295.237C136.854 295.133 136.868 295.029 136.903 294.93C136.937 294.832 136.991 294.741 137.061 294.664C137.132 294.587 137.217 294.526 137.312 294.483C137.407 294.44 137.51 294.417 137.615 294.415C137.719 294.413 137.823 294.432 137.919 294.472C138.016 294.511 138.103 294.57 138.177 294.644C138.25 294.718 138.307 294.807 138.345 294.904C138.383 295.001 138.401 295.105 138.397 295.21C138.434 297.221 138.49 299.284 138.567 301.342C138.574 301.546 138.499 301.744 138.36 301.893C138.222 302.042 138.029 302.13 137.826 302.137L137.798 302.139ZM137.565 289.843C137.362 289.843 137.167 289.761 137.023 289.617C136.88 289.473 136.799 289.278 136.799 289.074C136.799 285.167 136.899 282.918 136.901 282.897C136.904 282.796 136.928 282.697 136.97 282.605C137.012 282.513 137.072 282.43 137.146 282.362C137.221 282.293 137.308 282.24 137.403 282.206C137.498 282.171 137.599 282.156 137.7 282.161C137.904 282.17 138.096 282.258 138.234 282.408C138.372 282.558 138.445 282.757 138.437 282.96C138.437 282.983 138.344 285.204 138.337 289.077C138.336 289.278 138.256 289.472 138.115 289.615C137.973 289.758 137.781 289.84 137.579 289.843H137.565Z" fill="white"/>
<path d="M360.218 351.138C360.059 351.138 359.903 351.089 359.773 350.997C359.642 350.905 359.544 350.775 359.491 350.624C359.439 350.474 359.434 350.31 359.479 350.157C359.523 350.004 359.615 349.868 359.74 349.769C361.265 348.471 362.671 347.038 363.94 345.488C364.071 345.332 364.258 345.234 364.462 345.215C364.665 345.197 364.867 345.261 365.024 345.392C365.18 345.523 365.278 345.71 365.296 345.914C365.314 346.117 365.251 346.319 365.12 346.475C362.688 349.379 360.776 350.908 360.706 350.97C360.568 351.081 360.395 351.141 360.218 351.138ZM368.135 341.774C367.998 341.774 367.863 341.737 367.745 341.667C367.627 341.598 367.53 341.498 367.463 341.378C367.396 341.258 367.363 341.123 367.366 340.985C367.37 340.848 367.41 340.715 367.482 340.598C368.548 338.887 369.488 337.102 370.296 335.255C370.333 335.158 370.39 335.07 370.462 334.996C370.535 334.922 370.621 334.863 370.717 334.823C370.813 334.783 370.916 334.763 371.019 334.764C371.123 334.765 371.226 334.787 371.321 334.829C371.416 334.87 371.501 334.931 371.572 335.006C371.643 335.082 371.699 335.171 371.734 335.268C371.77 335.365 371.786 335.469 371.78 335.573C371.775 335.676 371.749 335.778 371.703 335.871C370.866 337.783 369.892 339.632 368.788 341.404C368.719 341.516 368.624 341.609 368.509 341.673C368.395 341.738 368.266 341.772 368.135 341.774ZM373.014 330.542C372.947 330.541 372.881 330.533 372.816 330.516C372.622 330.463 372.456 330.336 372.354 330.163C372.252 329.989 372.222 329.782 372.27 329.587C372.752 327.766 373.101 325.913 373.313 324.042C373.32 323.938 373.347 323.836 373.394 323.743C373.441 323.65 373.506 323.567 373.586 323.5C373.666 323.433 373.759 323.383 373.859 323.353C373.958 323.323 374.063 323.313 374.167 323.325C374.27 323.337 374.371 323.369 374.461 323.421C374.552 323.473 374.631 323.542 374.694 323.625C374.757 323.708 374.802 323.803 374.827 323.905C374.852 324.006 374.856 324.111 374.84 324.214C374.62 326.16 374.258 328.088 373.757 329.982C373.712 330.142 373.616 330.282 373.484 330.383C373.352 330.484 373.191 330.54 373.025 330.542H373.014Z" fill="white"/>
<path d="M369.45 293.797C369.346 293.798 369.243 293.778 369.147 293.738C369.051 293.698 368.965 293.639 368.893 293.564C367.486 292.022 366.168 290.402 364.943 288.711C364.832 288.547 364.789 288.346 364.823 288.151C364.856 287.955 364.964 287.78 365.124 287.662C365.283 287.545 365.482 287.493 365.679 287.518C365.876 287.544 366.055 287.644 366.179 287.798C367.37 289.437 368.648 291.009 370.01 292.507C370.113 292.616 370.182 292.753 370.208 292.901C370.234 293.049 370.216 293.201 370.157 293.338C370.097 293.476 369.999 293.594 369.874 293.676C369.749 293.759 369.602 293.803 369.452 293.804L369.45 293.797ZM362.093 283.933C361.963 283.934 361.835 283.901 361.722 283.838C361.608 283.776 361.512 283.685 361.443 283.575C360.344 281.828 359.296 280.021 358.33 278.204C358.246 278.026 358.234 277.822 358.297 277.635C358.359 277.447 358.491 277.291 358.666 277.199C358.84 277.106 359.043 277.084 359.233 277.138C359.423 277.191 359.585 277.315 359.686 277.484C360.634 279.266 361.663 281.041 362.744 282.755C362.817 282.871 362.859 283.005 362.863 283.143C362.867 283.28 362.834 283.417 362.768 283.537C362.701 283.657 362.603 283.758 362.485 283.827C362.366 283.897 362.231 283.934 362.093 283.933ZM356.325 273.08C356.176 273.078 356.031 273.033 355.908 272.951C355.784 272.868 355.687 272.752 355.628 272.615C354.792 270.708 354.028 268.764 353.358 266.838C353.292 266.646 353.304 266.435 353.393 266.251C353.481 266.068 353.639 265.928 353.831 265.861C354.023 265.794 354.234 265.806 354.418 265.895C354.601 265.984 354.741 266.141 354.808 266.334C355.465 268.222 356.202 270.127 357.036 271.997C357.087 272.114 357.108 272.241 357.098 272.368C357.088 272.495 357.047 272.617 356.977 272.724C356.908 272.831 356.814 272.919 356.702 272.98C356.591 273.041 356.466 273.074 356.339 273.075L356.325 273.08ZM352.304 261.465C352.133 261.465 351.967 261.407 351.832 261.302C351.698 261.197 351.602 261.05 351.56 260.884C351.045 258.867 350.631 256.821 350.292 254.802C350.268 254.605 350.32 254.405 350.44 254.246C350.559 254.087 350.735 253.98 350.932 253.948C351.128 253.916 351.329 253.962 351.493 254.075C351.657 254.188 351.77 254.361 351.809 254.556C352.13 256.53 352.545 258.533 353.05 260.505C353.077 260.619 353.079 260.737 353.054 260.851C353.03 260.965 352.98 261.073 352.908 261.165C352.837 261.257 352.745 261.332 352.64 261.384C352.536 261.436 352.421 261.463 352.304 261.465ZM350.355 249.343C350.16 249.343 349.973 249.269 349.831 249.135C349.689 249.002 349.603 248.82 349.591 248.625C349.498 247.231 349.451 245.812 349.451 244.421C349.451 243.752 349.465 243.073 349.493 242.402C349.496 242.301 349.52 242.201 349.562 242.109C349.604 242.017 349.664 241.935 349.738 241.866C349.813 241.798 349.9 241.745 349.995 241.71C350.09 241.676 350.191 241.66 350.292 241.665C350.393 241.67 350.492 241.694 350.584 241.736C350.676 241.779 350.758 241.839 350.827 241.913C350.895 241.988 350.948 242.075 350.983 242.17C351.017 242.265 351.033 242.366 351.028 242.467C351.001 243.115 350.989 243.772 350.989 244.421C350.989 245.78 351.033 247.159 351.124 248.525C351.13 248.626 351.117 248.727 351.085 248.822C351.052 248.918 351.001 249.006 350.935 249.081C350.869 249.157 350.788 249.219 350.697 249.263C350.607 249.308 350.509 249.334 350.408 249.341L350.355 249.343ZM350.889 237.094C350.848 237.097 350.807 237.097 350.766 237.094C350.565 237.061 350.385 236.95 350.266 236.785C350.146 236.62 350.097 236.414 350.129 236.213C350.45 234.239 350.889 232.192 351.44 230.132C351.499 229.942 351.629 229.782 351.803 229.686C351.977 229.59 352.181 229.565 352.373 229.617C352.565 229.668 352.729 229.792 352.832 229.962C352.935 230.132 352.968 230.335 352.924 230.529C352.387 232.541 351.958 234.534 351.646 236.457C351.618 236.637 351.526 236.801 351.387 236.92C351.248 237.038 351.072 237.103 350.889 237.103V237.094ZM354.014 225.223C353.891 225.223 353.77 225.194 353.66 225.137C353.551 225.081 353.457 224.999 353.387 224.898C353.316 224.798 353.27 224.682 353.253 224.56C353.237 224.438 353.25 224.314 353.291 224.199C353.953 222.34 354.685 220.445 355.554 218.43C355.592 218.335 355.648 218.248 355.72 218.175C355.792 218.102 355.878 218.043 355.972 218.004C356.067 217.964 356.169 217.944 356.271 217.944C356.374 217.945 356.475 217.966 356.57 218.006C356.664 218.046 356.75 218.105 356.821 218.178C356.892 218.252 356.948 218.339 356.985 218.435C357.023 218.531 357.04 218.633 357.037 218.735C357.034 218.838 357.011 218.939 356.968 219.032C356.121 221.018 355.391 222.877 354.738 224.712C354.687 224.863 354.589 224.995 354.459 225.088C354.33 225.182 354.174 225.232 354.014 225.232V225.223ZM358.804 213.903C358.674 213.903 358.546 213.87 358.432 213.807C358.318 213.744 358.222 213.654 358.152 213.544C358.083 213.434 358.042 213.309 358.034 213.179C358.026 213.049 358.051 212.919 358.107 212.802C358.906 211.138 359.805 209.331 360.855 207.278C360.954 207.108 361.114 206.982 361.302 206.926C361.491 206.871 361.694 206.889 361.869 206.978C362.044 207.068 362.178 207.221 362.244 207.406C362.31 207.591 362.303 207.795 362.223 207.974C361.178 210.014 360.286 211.81 359.494 213.461C359.433 213.595 359.337 213.708 359.214 213.787C359.092 213.867 358.95 213.911 358.804 213.912V213.903ZM364.379 202.938C364.247 202.938 364.117 202.904 364.002 202.839C363.887 202.774 363.791 202.68 363.722 202.567C363.654 202.454 363.616 202.326 363.612 202.194C363.607 202.062 363.637 201.931 363.698 201.814C364.669 199.955 365.615 198.139 366.514 196.359C366.56 196.269 366.623 196.189 366.699 196.123C366.776 196.057 366.865 196.007 366.961 195.976C367.057 195.945 367.159 195.932 367.26 195.94C367.36 195.948 367.459 195.976 367.549 196.021C367.639 196.067 367.719 196.13 367.785 196.207C367.851 196.284 367.901 196.373 367.932 196.469C367.963 196.565 367.976 196.666 367.968 196.767C367.96 196.868 367.933 196.966 367.887 197.056C366.983 198.845 366.028 200.666 365.062 202.532C364.997 202.657 364.899 202.763 364.778 202.836C364.657 202.91 364.518 202.948 364.377 202.947L364.379 202.938ZM369.868 191.934C369.74 191.933 369.615 191.9 369.503 191.838C369.391 191.776 369.296 191.687 369.227 191.58C369.158 191.472 369.117 191.349 369.107 191.221C369.097 191.094 369.119 190.966 369.171 190.849C370.101 188.779 370.856 186.937 371.46 185.216C371.534 185.032 371.675 184.884 371.856 184.803C372.036 184.721 372.241 184.712 372.427 184.778C372.614 184.843 372.768 184.978 372.858 185.154C372.948 185.331 372.966 185.535 372.909 185.724C372.291 187.49 371.515 189.372 370.572 191.481C370.512 191.618 370.413 191.735 370.288 191.817C370.162 191.899 370.016 191.943 369.866 191.943L369.868 191.934ZM373.792 180.319C373.746 180.319 373.7 180.314 373.655 180.305C373.556 180.287 373.461 180.25 373.376 180.196C373.291 180.142 373.218 180.071 373.16 179.989C373.103 179.906 373.062 179.813 373.04 179.714C373.019 179.616 373.017 179.514 373.035 179.415C373.278 178.085 373.404 176.737 373.411 175.385C373.411 174.776 373.383 174.174 373.325 173.596C373.315 173.399 373.382 173.205 373.511 173.056C373.639 172.906 373.821 172.812 374.017 172.793C374.214 172.773 374.41 172.83 374.566 172.952C374.721 173.073 374.824 173.25 374.854 173.445C374.916 174.072 374.949 174.725 374.949 175.385C374.941 176.827 374.807 178.266 374.547 179.685C374.516 179.864 374.424 180.026 374.285 180.143C374.146 180.26 373.971 180.325 373.79 180.326L373.792 180.319Z" fill="white"/>
<path d="M366.623 174.292H366.593C363.623 174.176 360.775 173.085 358.488 171.187C356.2 169.29 354.602 166.692 353.94 163.795C353.277 160.898 353.588 157.864 354.823 155.161C356.059 152.458 358.15 150.238 360.774 148.843C363.398 147.449 366.409 146.957 369.34 147.445C372.272 147.933 374.96 149.374 376.991 151.543C379.022 153.713 380.281 156.491 380.574 159.449C380.867 162.406 380.177 165.377 378.612 167.903C378.5 168.065 378.33 168.177 378.137 168.216C377.944 168.256 377.744 168.221 377.577 168.117C377.409 168.014 377.288 167.85 377.238 167.66C377.188 167.47 377.212 167.267 377.307 167.095C378.69 164.859 379.298 162.229 379.037 159.613C378.777 156.997 377.662 154.539 375.864 152.62C374.067 150.701 371.688 149.427 369.094 148.996C366.501 148.564 363.837 148.999 361.515 150.233C359.194 151.467 357.343 153.431 356.249 155.822C355.155 158.213 354.879 160.897 355.464 163.461C356.049 166.024 357.462 168.324 359.484 170.004C361.507 171.684 364.026 172.651 366.653 172.756C366.857 172.76 367.051 172.845 367.192 172.992C367.334 173.139 367.411 173.336 367.407 173.54C367.403 173.744 367.318 173.938 367.171 174.079C367.024 174.221 366.827 174.298 366.623 174.294V174.292Z" fill="white"/>
<path d="M367.053 167.19C366.931 167.19 366.81 167.161 366.702 167.105C366.593 167.049 366.499 166.969 366.428 166.869L361.18 159.531C361.117 159.449 361.071 159.356 361.045 159.256C361.019 159.156 361.013 159.051 361.028 158.949C361.043 158.847 361.079 158.749 361.133 158.661C361.186 158.572 361.257 158.496 361.341 158.436C361.426 158.376 361.521 158.333 361.622 158.311C361.722 158.288 361.827 158.286 361.928 158.305C362.03 158.324 362.127 158.363 362.213 158.42C362.299 158.477 362.373 158.55 362.43 158.637L366.495 164.321C367.037 159.854 368.066 156.4 369.622 153.802C369.671 153.71 369.738 153.629 369.82 153.564C369.901 153.499 369.995 153.45 370.095 153.423C370.196 153.395 370.301 153.387 370.404 153.401C370.508 153.415 370.607 153.45 370.696 153.504C370.786 153.558 370.864 153.629 370.925 153.714C370.986 153.798 371.029 153.894 371.052 153.996C371.074 154.098 371.076 154.203 371.057 154.306C371.037 154.408 370.997 154.506 370.939 154.592C369.313 157.326 368.252 161.329 367.819 166.486C367.806 166.643 367.745 166.792 367.645 166.913C367.544 167.035 367.409 167.122 367.257 167.164C367.19 167.181 367.122 167.19 367.053 167.19Z" fill="#1176CA"/>
<path d="M428.804 62.6974C430.681 62.4553 432.006 60.7386 431.764 58.8631C431.523 56.9875 429.805 55.6633 427.928 55.9054C426.051 56.1475 424.726 57.8642 424.968 59.7398C425.21 61.6153 426.927 62.9395 428.804 62.6974Z" fill="#77A9E3"/>
<path d="M410.41 53.0154C409.133 53.0169 407.906 52.5218 406.988 51.6348C406.069 50.7478 405.532 49.5384 405.489 48.2623C405.446 46.9863 405.901 45.7436 406.758 44.7971C407.615 43.8505 408.807 43.2744 410.081 43.1904C411.355 43.1064 412.611 43.5211 413.585 44.3469C414.559 45.1728 415.173 46.3449 415.298 47.6155C415.424 48.8862 415.05 50.1556 414.256 51.1556C413.462 52.1555 412.31 52.8074 411.044 52.9736C410.834 53.0012 410.622 53.0152 410.41 53.0154ZM410.41 44.7384C410.265 44.7386 410.12 44.7479 409.976 44.7663C409.107 44.8787 408.316 45.3244 407.771 46.0093C407.225 46.6941 406.967 47.5644 407.051 48.436C407.135 49.3077 407.555 50.1124 408.222 50.6801C408.889 51.2477 409.75 51.5337 410.624 51.4776C411.498 51.4215 412.316 51.0277 412.905 50.3795C413.494 49.7313 413.808 48.8795 413.78 48.0042C413.752 47.129 413.385 46.2988 412.756 45.6893C412.127 45.0799 411.286 44.7389 410.41 44.7384Z" fill="#1176CA"/>
<path d="M426.404 33.1389C426.236 33.1377 426.072 33.0814 425.939 32.9786L423.744 31.2874C423.653 31.2306 423.576 31.1555 423.516 31.067C423.456 30.9784 423.415 30.8784 423.396 30.7732C423.377 30.668 423.38 30.56 423.405 30.456C423.43 30.3521 423.477 30.2545 423.542 30.1695C423.606 30.0846 423.688 30.0141 423.782 29.9625C423.876 29.9109 423.979 29.8795 424.085 29.8701C424.192 29.8608 424.299 29.8737 424.4 29.9082C424.502 29.9426 424.595 29.9978 424.673 30.0702L426.869 31.7613C427.029 31.8862 427.134 32.0696 427.16 32.2715C427.186 32.4735 427.132 32.6775 427.008 32.8392C426.937 32.9322 426.846 33.0075 426.741 33.0595C426.636 33.1115 426.521 33.1386 426.404 33.1389Z" fill="#1176CA"/>
<path d="M434.086 39.0574C433.918 39.0563 433.755 39 433.621 38.8971L431.426 37.206C431.285 37.0762 431.197 36.8983 431.181 36.7073C431.164 36.5163 431.219 36.3259 431.336 36.1735C431.452 36.021 431.621 35.9176 431.81 35.8834C431.998 35.8492 432.193 35.8868 432.355 35.9887L434.551 37.6799C434.677 37.7777 434.77 37.9125 434.817 38.0657C434.863 38.2188 434.86 38.3826 434.809 38.5343C434.758 38.6859 434.661 38.8178 434.531 38.9116C434.402 39.0053 434.246 39.0563 434.086 39.0574Z" fill="#1176CA"/>
<path d="M425.347 40.1873C425.204 40.1882 425.062 40.1486 424.94 40.073C424.818 39.9973 424.72 39.8887 424.656 39.7597C424.593 39.6306 424.567 39.4864 424.582 39.3434C424.597 39.2004 424.652 39.0646 424.741 38.9515L426.432 36.7562C426.562 36.6151 426.74 36.5275 426.931 36.5108C427.122 36.494 427.312 36.5492 427.465 36.6655C427.617 36.7819 427.72 36.951 427.755 37.1397C427.789 37.3284 427.751 37.523 427.649 37.6854L425.956 39.8784C425.885 39.9734 425.793 40.0507 425.688 40.1043C425.582 40.1579 425.466 40.1863 425.347 40.1873Z" fill="#1176CA"/>
<path d="M431.264 32.5095C431.095 32.5094 430.932 32.4529 430.799 32.3492C430.719 32.2877 430.652 32.211 430.601 32.1235C430.551 32.036 430.518 31.9394 430.505 31.8392C430.492 31.739 430.499 31.6373 430.526 31.5398C430.552 31.4424 430.598 31.3511 430.66 31.2713L432.353 29.0784C432.411 28.9907 432.487 28.9158 432.575 28.8585C432.663 28.8011 432.762 28.7625 432.865 28.745C432.969 28.7276 433.075 28.7316 433.177 28.7569C433.279 28.7822 433.375 28.8282 433.458 28.892C433.542 28.9559 433.611 29.0363 433.663 29.1281C433.714 29.22 433.745 29.3214 433.756 29.426C433.766 29.5306 433.755 29.6362 433.722 29.7363C433.69 29.8363 433.638 29.9287 433.568 30.0076L431.877 32.2028C431.806 32.298 431.713 32.3753 431.607 32.4285C431.5 32.4818 431.383 32.5095 431.264 32.5095Z" fill="#1176CA"/>
<path d="M426.248 271.615C426.149 271.615 426.05 271.596 425.958 271.557C425.77 271.48 425.62 271.331 425.541 271.144C425.462 270.956 425.461 270.745 425.538 270.556C442.64 228.595 429.241 173.284 429.103 172.731C429.062 172.536 429.097 172.332 429.203 172.163C429.309 171.993 429.476 171.872 429.669 171.824C429.863 171.775 430.068 171.804 430.241 171.904C430.413 172.004 430.54 172.167 430.595 172.359C430.627 172.499 434.079 186.551 435.339 205.637C436.5 223.271 436.003 248.949 426.959 271.146C426.9 271.286 426.801 271.405 426.675 271.488C426.548 271.572 426.4 271.616 426.248 271.615Z" fill="white"/>
<path d="M424.518 253.766C424.439 253.767 424.361 253.756 424.286 253.734C424.091 253.674 423.928 253.539 423.832 253.36C423.737 253.18 423.716 252.97 423.774 252.775C428.4 237.64 427.004 213.845 426.987 213.606C426.975 213.402 427.043 213.202 427.178 213.049C427.313 212.896 427.504 212.803 427.707 212.791C427.911 212.778 428.111 212.847 428.264 212.982C428.417 213.117 428.51 213.307 428.523 213.511C428.537 213.743 429.951 237.821 425.245 253.235C425.195 253.388 425.098 253.522 424.967 253.618C424.837 253.713 424.679 253.765 424.518 253.766Z" fill="white"/>
<path d="M239.361 41.4948C239.188 41.4943 239.021 41.4357 238.886 41.3285C238.75 41.2213 238.655 41.0718 238.615 40.904C238.575 40.7361 238.593 40.5597 238.665 40.4031C238.738 40.2466 238.861 40.1189 239.014 40.0406C239.117 39.9872 249.384 34.851 265.202 32.2376C279.795 29.8263 302.261 29.1177 326.409 39.439C326.507 39.4753 326.596 39.531 326.671 39.6028C326.746 39.6746 326.806 39.7609 326.847 39.8565C326.888 39.9521 326.91 40.0551 326.91 40.1591C326.91 40.2632 326.889 40.3661 326.848 40.4618C326.807 40.5574 326.747 40.6438 326.672 40.7156C326.596 40.7875 326.507 40.8433 326.41 40.8797C326.312 40.9161 326.209 40.9324 326.105 40.9275C326.001 40.9227 325.899 40.8967 325.805 40.8514C301.999 30.6765 279.844 31.3757 265.453 33.7545C249.865 36.3307 239.807 41.3601 239.709 41.4205C239.6 41.472 239.481 41.4974 239.361 41.4948Z" fill="white"/>
<path d="M316.955 46.4609C316.823 46.4605 316.693 46.4261 316.578 46.361C301.079 37.638 279.96 40.716 279.749 40.7485C279.551 40.7718 279.352 40.7173 279.193 40.5965C279.035 40.4757 278.929 40.2981 278.899 40.1011C278.869 39.9041 278.916 39.7031 279.032 39.5404C279.147 39.3778 279.321 39.2662 279.517 39.2293C279.733 39.1968 301.353 36.0351 317.331 45.0229C317.479 45.1066 317.594 45.2368 317.66 45.3933C317.726 45.5497 317.739 45.7236 317.695 45.8878C317.652 46.0519 317.556 46.1972 317.421 46.3009C317.287 46.4045 317.122 46.4608 316.952 46.4609H316.955Z" fill="white"/>
</svg>
